<svg xmlns="http://www.w3.org/2000/svg" id="Layer_1" viewBox="0 0 491.8 116.7">
  <style>
    .st2{fill:#fff}.st3{fill:#eeb111}
  </style>
  <pattern id="Polka_Dot_Pattern" width="69" height="69" x="-41.3" y="491.8" overflow="visible" patternUnits="userSpaceOnUse" viewBox="2.1 -70.9 69 69">
    <path fill="none" d="M2.1-70.9h69v69h-69z"/>
    <path fill="#f7bc60" d="M2.1-70.9h69v69h-69z"/>
    <path d="M61.8-71.7v.2c-.1.1-.1.1-.2.1-.1.1-.1.3-.1.4-.2.1 0 .2 0 .3v.2c0 .1 0 .3.1.4.1.2.3.4.4.5.2.1.4.6.6.6.2 0 .4-.1.5-.1.2 0 .4 0 .6-.1.2-.1.1-.3.3-.5.1-.1.3 0 .4-.1.2-.1.3-.3.4-.5v-.2c0-.1.1-.2.1-.3 0-.1-.1-.1-.1-.2v-.3c0-.2 0-.4-.1-.5-.4-.7-1.2-.9-2-.8-.2 0-.3.1-.4.2-.2.1-.1.2-.3.2-.1 0-.2.1-.2.2v.3c0 .1 0 .1 0 0M54.1-71.7v.2c-.1.1-.1.1-.2.1-.1.1-.1.3-.1.4-.2.1 0 .2 0 .3v.2c0 .1 0 .3.1.4.1.2.3.4.4.5.2.1.4.6.6.6.2 0 .4-.1.5-.1.2 0 .4 0 .6-.1.2-.1.1-.3.3-.5.1-.1.3 0 .4-.1.2-.1.3-.3.4-.5v-.2c0-.1.1-.2.1-.3 0-.1-.1-.1-.1-.2v-.3c0-.2 0-.4-.1-.5-.4-.7-1.2-.9-2-.8-.2 0-.3.1-.4.2-.2.1-.1.2-.3.2-.1 0-.2.1-.2.2v.3c0 .1 0 .1 0 0M46.4-71.7v.2c-.1.1-.1.1-.2.1-.1.1-.1.3-.1.4-.2.1 0 .2 0 .3v.2c0 .1 0 .3.1.4.1.2.3.4.4.5.2.1.4.6.6.6.2 0 .4-.1.5-.1.2 0 .4 0 .6-.1.2-.1.1-.3.3-.5.1-.1.3 0 .4-.1.2-.1.3-.3.4-.5v-.2c0-.1.1-.2.1-.3 0-.1-.1-.1-.1-.2v-.3c0-.2 0-.4-.1-.5-.4-.7-1.2-.9-2-.8-.2 0-.3.1-.4.2-.2.1-.1.2-.3.2-.1 0-.2.1-.2.2v.3c0 .1 0 .1 0 0M38.8-71.7v.2c-.1.1-.1.1-.2.1-.1.1-.1.3-.1.4-.2.1 0 .2 0 .3v.2c0 .1 0 .3.1.4.1.2.3.4.4.5.2.1.4.6.6.6.2 0 .4-.1.5-.1.2 0 .4 0 .6-.1.2-.1.1-.3.3-.5.1-.1.3 0 .4-.1.2-.1.3-.3.4-.5v-.2c0-.1.1-.2.1-.3 0-.1-.1-.1-.1-.2v-.3c0-.2 0-.4-.1-.5-.4-.7-1.2-.9-2-.8-.2 0-.3.1-.4.2-.2.1-.1.2-.3.2-.1 0-.2.1-.2.2v.3c0 .1 0 .1 0 0M31.1-71.7v.2c-.1.1-.1.1-.2.1-.1.1-.1.3-.1.4-.2.1 0 .2 0 .3v.2c0 .1 0 .3.1.4.1.2.3.4.4.5.2.1.4.6.6.6.2 0 .4-.1.5-.1.2 0 .4 0 .6-.1.2-.1.1-.3.3-.5.1-.1.3 0 .4-.1.2-.1.3-.3.4-.5v-.2c0-.1.1-.2.1-.3 0-.1-.1-.1-.1-.2v-.3c0-.2 0-.4-.1-.5-.4-.7-1.2-.9-2-.8-.2 0-.3.1-.4.2-.2.1-.1.2-.3.2-.1 0-.2.1-.2.2v.3c0 .1 0 .1 0 0M23.4-71.7v.2c-.1.1-.1.1-.2.1-.1.1-.1.3-.1.4-.2.1 0 .2 0 .3v.2c0 .1 0 .3.1.4.1.2.3.4.4.5.2.1.4.6.6.6.2 0 .4-.1.5-.1.2 0 .4 0 .6-.1.2-.1.1-.3.3-.5.1-.1.3 0 .4-.1.2-.1.3-.3.4-.5v-.2c0-.1.1-.2.1-.3 0-.1-.1-.1-.1-.2v-.3c0-.2 0-.4-.1-.5-.4-.7-1.2-.9-2-.8-.2 0-.3.1-.4.2-.2.1-.1.2-.3.2-.1 0-.2.1-.2.2v.3c0 .1 0 .1 0 0M15.8-71.7v.2c-.1.1-.1.1-.2.1-.1.1-.1.3-.1.4-.2.1 0 .2 0 .3v.2c0 .1 0 .3.1.4.1.2.3.4.4.5.2.1.4.6.6.6.2 0 .4-.1.5-.1.2 0 .4 0 .6-.1.2-.1.1-.3.3-.5.1-.1.3 0 .4-.1.2-.1.3-.3.4-.5v-.2c0-.1.1-.2.1-.3 0-.1-.1-.1-.1-.2v-.3c0-.2 0-.4-.1-.5-.4-.7-1.2-.9-2-.8-.2 0-.3.1-.4.2-.2.1-.1.2-.3.2-.1 0-.2.1-.2.2v.3c0 .1 0 .1 0 0M8.1-71.7v.2l-.2.2c-.1.1-.1.3-.1.4-.2.1 0 .2 0 .3v.2c0 .1 0 .3.1.4.1.2.3.4.4.5.2.1.4.6.6.6.2 0 .4-.1.5-.1.2 0 .4 0 .6-.1.2-.1.1-.3.3-.5.1-.1.3 0 .4-.1.2-.1.3-.3.4-.5v-.2c0-.1.1-.2.1-.3 0-.1-.1-.1-.1-.2v-.3c0-.2 0-.4-.1-.5-.4-.7-1.2-.9-2-.8-.2 0-.3.1-.4.2-.2.1-.1.2-.3.2-.1 0-.2.1-.2.2v.2c0 .1 0 .1 0 0M.4-71.7v.2c-.1.1-.1.1-.2.1-.1.1-.1.3-.1.4-.2.1 0 .2 0 .3v.2c0 .1 0 .3.1.4.1.2.3.4.4.5.2.2.4.6.6.7.2 0 .4-.1.5-.1.2 0 .4 0 .6-.1.2-.1.1-.3.3-.5.1-.1.3 0 .4-.1.2-.1.3-.3.4-.5v-.2c0-.1.1-.2.1-.3 0-.1-.1-.1-.1-.2v-.3c0-.2 0-.4-.1-.5-.4-.7-1.2-.9-2-.8-.2 0-.3.1-.4.2-.2.1-.1.2-.3.2-.1 0-.2.1-.2.2v.2c0 .1 0 .1 0 0" class="st2"/>
    <g>
      <path d="M69.4-71.7v.2c-.1.1-.1.1-.2.1-.1.1-.1.3-.1.4-.2.1 0 .2 0 .3v.2c0 .1 0 .3.1.4.1.2.3.4.4.5.2.1.4.6.6.6.2 0 .4-.1.5-.1.2 0 .4 0 .6-.1.2-.1.1-.3.3-.5.1-.1.3 0 .4-.1.2-.1.3-.3.4-.5v-.2c0-.1.1-.2.1-.3 0-.1-.1-.1-.1-.2v-.3c0-.2 0-.4-.1-.5-.4-.7-1.2-.9-2-.8-.2 0-.3.1-.4.2-.2.1-.1.2-.3.2-.1 0-.2.1-.2.2v.3c0 .1 0 .1 0 0" class="st2"/>
    </g>
    <path d="M.5-71.7v.2c-.1.1-.1.1-.2.1-.1.1-.1.3-.1.4-.2.1 0 .2 0 .3v.2c0 .1 0 .3.1.4.1.2.3.4.4.5.2.2.3.6.6.7.2 0 .4-.1.5-.1.2 0 .4 0 .6-.1.2-.1.1-.3.3-.5.1-.1.3 0 .4-.1.2-.1.3-.3.4-.5v-.2c0-.1.1-.2.1-.3 0-.1-.1-.1-.1-.2v-.3c0-.2 0-.4-.1-.5-.4-.7-1.2-.9-2-.8-.2 0-.3.1-.4.2-.2.1-.1.2-.3.2-.1 0-.2.1-.2.2v.2c0 .1 0 .1 0 0" class="st2"/>
    <g>
      <path d="M69.4-64v.2c-.1.1-.1.1-.2.1-.1.1-.1.3-.1.4-.2.1 0 .2 0 .3v.2c0 .1 0 .3.1.4.1.2.3.4.4.5.2.1.4.6.6.6.2 0 .4-.1.5-.1.2 0 .4 0 .6-.1.2-.1.1-.3.3-.5.1-.1.3 0 .4-.1.2-.1.3-.3.4-.5v-.2c0-.1.1-.2.1-.3 0-.1-.1-.1-.1-.2v-.3c0-.2 0-.4-.1-.5-.4-.7-1.2-.9-2-.8-.2 0-.3.1-.4.2-.2.1-.1.2-.3.2-.1 0-.2.1-.2.2v.3M61.8-64v.2c-.1.1-.1.1-.2.1-.1.1-.1.3-.1.4-.2.1 0 .2 0 .3v.2c0 .1 0 .3.1.4.1.2.3.4.4.5.2.1.4.6.6.6.2 0 .4-.1.5-.1.2 0 .4 0 .6-.1.2-.1.1-.3.3-.5.1-.1.3 0 .4-.1.2-.1.3-.3.4-.5v-.2c0-.1.1-.2.1-.3 0-.1-.1-.1-.1-.2v-.3c0-.2 0-.4-.1-.5-.4-.7-1.2-.9-2-.8-.2 0-.3.1-.4.2-.2.1-.1.2-.3.2-.1 0-.2.1-.2.2v.3M54.1-64v.2c-.1.1-.1.1-.2.1-.1.1-.1.3-.1.4-.2.1 0 .2 0 .3v.2c0 .1 0 .3.1.4.1.2.3.4.4.5.2.1.4.6.6.6.2 0 .4-.1.5-.1.2 0 .4 0 .6-.1.2-.1.1-.3.3-.5.1-.1.3 0 .4-.1.2-.1.3-.3.4-.5v-.2c0-.1.1-.2.1-.3 0-.1-.1-.1-.1-.2v-.3c0-.2 0-.4-.1-.5-.4-.7-1.2-.9-2-.8-.2 0-.3.1-.4.2-.2.1-.1.2-.3.2-.1 0-.2.1-.2.2v.3M46.5-64v.2c-.1.1-.1.1-.2.1-.1.1-.1.3-.1.4-.2.1 0 .2 0 .3v.2c0 .1 0 .3.1.4.1.2.3.4.4.5.2.1.4.6.6.6.2 0 .4-.1.5-.1.2 0 .4 0 .6-.1.2-.1.1-.3.3-.5.1-.1.3 0 .4-.1.2-.1.3-.3.4-.5v-.2c0-.1.1-.2.1-.3 0-.1-.1-.1-.1-.2v-.3c0-.2 0-.4-.1-.5-.4-.7-1.2-.9-2-.8-.2 0-.3.1-.4.2-.2.1-.1.2-.3.2-.1 0-.2.1-.2.2v.3M38.8-64v.2c-.1.1-.1.1-.2.1-.1.1-.1.3-.1.4-.2.1 0 .2 0 .3v.2c0 .1 0 .3.1.4.1.2.3.4.4.5.2.1.4.6.6.6.2 0 .4-.1.5-.1.2 0 .4 0 .6-.1.2-.1.1-.3.3-.5.1-.1.3 0 .4-.1.2-.1.3-.3.4-.5v-.2c0-.1.1-.2.1-.3 0-.1-.1-.1-.1-.2v-.3c0-.2 0-.4-.1-.5-.4-.7-1.2-.9-2-.8-.2 0-.3.1-.4.2-.2.1-.1.2-.3.2-.1 0-.2.1-.2.2v.3M31.1-64v.2c-.1.1-.1.1-.2.1-.1.1-.1.3-.1.4-.2.1 0 .2 0 .3v.2c0 .1 0 .3.1.4.1.2.3.4.4.5.2.1.4.6.6.6.2 0 .4-.1.5-.1.2 0 .4 0 .6-.1.2-.1.1-.3.3-.5.1-.1.3 0 .4-.1.2-.1.3-.3.4-.5v-.2c0-.1.1-.2.1-.3 0-.1-.1-.1-.1-.2v-.3c0-.2 0-.4-.1-.5-.4-.7-1.2-.9-2-.8-.2 0-.3.1-.4.2-.2.1-.1.2-.3.2-.1 0-.2.1-.2.2v.3M23.5-64v.2c-.1.1-.1.1-.2.1-.1.1-.1.3-.1.4-.2.1 0 .2 0 .3v.2c0 .1 0 .3.1.4.1.2.3.4.4.5.2.1.4.6.6.6.2 0 .4-.1.5-.1.2 0 .4 0 .6-.1.2-.1.1-.3.3-.5.1-.1.3 0 .4-.1.2-.1.3-.3.4-.5v-.2c0-.1.1-.2.1-.3 0-.1-.1-.1-.1-.2v-.3c0-.2 0-.4-.1-.5-.4-.7-1.2-.9-2-.8-.2 0-.3.1-.4.2-.2.1-.1.2-.3.2-.1 0-.2.1-.2.2v.3M15.8-64v.2c-.1.1-.1.1-.2.1-.1.1-.1.3-.1.4-.2.1 0 .2 0 .3v.2c0 .1 0 .3.1.4.1.2.3.4.4.5.2.1.4.6.6.6.2 0 .4-.1.5-.1.2 0 .4 0 .6-.1.2-.1.1-.3.3-.5.1-.1.3 0 .4-.1.2-.1.3-.3.4-.5v-.2c0-.1.1-.2.1-.3 0-.1-.1-.1-.1-.2v-.3c0-.2 0-.4-.1-.5-.4-.7-1.2-.9-2-.8-.2 0-.3.1-.4.2-.2.1-.1.2-.3.2-.1 0-.2.1-.2.2v.3M8.2-64v.2c-.1.1-.2.1-.2.1-.1.1-.1.3-.1.4-.2.1 0 .2 0 .3v.2c0 .1 0 .3.1.4 0 .2.2.4.3.5.2.1.4.6.6.6.2 0 .4-.1.5-.1.2 0 .4 0 .6-.1.2-.1.1-.3.3-.5.1-.1.3 0 .4-.1.2-.1.3-.3.4-.5v-.2c0-.1.1-.2.1-.3 0-.1-.1-.1-.1-.2v-.3c0-.2 0-.4-.1-.5-.4-.7-1.2-.9-2-.8-.2 0-.3.1-.4.2-.2.1-.1.2-.3.2-.1 0-.2.1-.2.2.1.3.1.2.1.3-.1 0-.1 0 0 0M.5-64v.2c-.1.1-.1.1-.2.1-.1.1-.1.3-.1.4-.2.1 0 .2 0 .3v.2c0 .1 0 .3.1.4.1.2.3.4.4.5.2.1.4.6.6.6.2 0 .4-.1.5-.1.2 0 .4 0 .6-.1.2-.1.1-.3.3-.5.1 0 .3.1.4 0 .2-.1.3-.3.4-.5v-.2c0-.1.1-.2.1-.3 0-.1-.1-.1-.1-.2v-.3c0-.2 0-.4-.1-.5-.4-.7-1.2-.9-2-.8-.2 0-.3.1-.4.2-.2.1-.1.2-.3.2-.1 0-.2.1-.2.2v.2" class="st2"/>
      <g>
        <path d="M69.4-56.3v.2c-.1.1-.1.1-.2.1-.1.1-.1.3-.1.4-.2.1 0 .2 0 .3v.2c0 .1 0 .3.1.4.1.2.3.4.4.5.2.1.4.6.6.6.2 0 .4-.1.5-.1.2 0 .4 0 .6-.1.2-.1.1-.3.3-.5.1-.1.3 0 .4-.1.2-.1.3-.3.4-.5v-.2c0-.1.1-.2.1-.3 0-.1-.1-.1-.1-.2v-.3c0-.2 0-.4-.1-.5-.4-.7-1.2-.9-2-.8-.2 0-.3.1-.4.2-.2.1-.1.2-.3.2-.1 0-.2.1-.2.2v.3M61.8-56.3v.2c-.1.1-.1.1-.2.1-.1.1-.1.3-.1.4-.2.1 0 .2 0 .3v.2c0 .1 0 .3.1.4.1.2.3.4.4.5.2.1.4.6.6.6.2 0 .4-.1.5-.1.2 0 .4 0 .6-.1.2-.1.1-.3.3-.5.1-.1.3 0 .4-.1.2-.1.3-.3.4-.5v-.2c0-.1.1-.2.1-.3 0-.1-.1-.1-.1-.2v-.3c0-.2 0-.4-.1-.5-.4-.7-1.2-.9-2-.8-.2 0-.3.1-.4.2-.2.1-.1.2-.3.2-.1 0-.2.1-.2.2v.3M54.1-56.3v.2c-.1 0-.1 0-.2.1s-.1.3-.1.4c-.2.1 0 .2 0 .3v.2c0 .1 0 .3.1.4.1.2.3.4.4.5.2.1.4.6.6.6.2 0 .4-.1.5-.1.2 0 .4 0 .6-.1.2-.1.1-.3.3-.5.1-.1.3 0 .4-.1.2-.1.3-.3.4-.5v-.2c0-.1.1-.2.1-.3 0-.1-.1-.1-.1-.2v-.3c0-.2 0-.4-.1-.5-.4-.7-1.2-.9-2-.8-.2 0-.3.1-.4.2-.2.1-.1.2-.3.2-.1 0-.2.1-.2.2v.3M46.5-56.3v.2c-.1.1-.1.1-.2.1-.1.1-.1.3-.1.4-.2.1 0 .2 0 .3v.2c0 .1 0 .3.1.4.1.2.3.4.4.5.2.1.4.6.6.6.2 0 .4-.1.5-.1.2 0 .4 0 .6-.1.2-.1.1-.3.3-.5.1-.1.3 0 .4-.1.2-.1.3-.3.4-.5v-.2c0-.1.1-.2.1-.3 0-.1-.1-.1-.1-.2v-.3c0-.2 0-.4-.1-.5-.4-.7-1.2-.9-2-.8-.2 0-.3.1-.4.2-.2.1-.1.2-.3.2-.1 0-.2.1-.2.2v.3M38.8-56.3v.2c-.1.1-.1.1-.2.1-.1.1-.1.3-.1.4-.2.1 0 .2 0 .3v.2c0 .1 0 .3.1.4.1.2.3.4.4.5.2.1.4.6.6.6.2 0 .4-.1.5-.1.2 0 .4 0 .6-.1.2-.1.1-.3.3-.5.1-.1.3 0 .4-.1.2-.1.3-.3.4-.5v-.2c0-.1.1-.2.1-.3 0-.1-.1-.1-.1-.2v-.3c0-.2 0-.4-.1-.5-.4-.7-1.2-.9-2-.8-.2 0-.3.1-.4.2-.2.1-.1.2-.3.2-.1 0-.2.1-.2.2v.3M31.1-56.3v.2c-.1.1-.1.1-.2.1-.1.1-.1.3-.1.4-.2.1 0 .2 0 .3v.2c0 .1 0 .3.1.4.1.2.3.4.4.5.2.1.4.6.6.6.2 0 .4-.1.5-.1.2 0 .4 0 .6-.1.2-.1.1-.3.3-.5.1-.1.3 0 .4-.1.2-.1.3-.3.4-.5v-.2c0-.1.1-.2.1-.3 0-.1-.1-.1-.1-.2v-.3c0-.2 0-.4-.1-.5-.4-.7-1.2-.9-2-.8-.2 0-.3.1-.4.2-.2.1-.1.2-.3.2-.1 0-.2.1-.2.2v.3M23.5-56.3v.2c-.1.1-.1.1-.2.1-.1.1-.1.3-.1.4-.2.1 0 .2 0 .3v.2c0 .1 0 .3.1.4.1.2.3.4.4.5.2.1.4.6.6.6.2 0 .4-.1.5-.1.2 0 .4 0 .6-.1.2-.1.1-.3.3-.5.1-.1.3 0 .4-.1.2-.1.3-.3.4-.5v-.2c0-.1.1-.2.1-.3 0-.1-.1-.1-.1-.2v-.3c0-.2 0-.4-.1-.5-.4-.7-1.2-.9-2-.8-.2 0-.3.1-.4.2-.2.1-.1.2-.3.2-.1 0-.2.1-.2.2v.3M15.8-56.3v.2c-.1.1-.1.1-.2.1-.1.1-.1.3-.1.4-.2.1 0 .2 0 .3v.2c0 .1 0 .3.1.4.1.2.3.4.4.5.2.1.4.6.6.6.2 0 .4-.1.5-.1.2 0 .4 0 .6-.1.2-.1.1-.3.3-.5.1-.1.3 0 .4-.1.2-.1.3-.3.4-.5v-.2c0-.1.1-.2.1-.3 0-.1-.1-.1-.1-.2v-.3c0-.2 0-.4-.1-.5-.4-.7-1.2-.9-2-.8-.2 0-.3.1-.4.2-.2.1-.1.2-.3.2-.1 0-.2.1-.2.2v.3M8.2-56.3v.2c-.1 0-.2 0-.2.1-.1.1-.1.3-.1.4-.2.1 0 .2 0 .3v.2c0 .1 0 .3.1.4.1.2.3.4.4.5.2.1.4.6.6.6.2 0 .4-.1.5-.1.2 0 .4 0 .6-.1.2-.1.1-.3.3-.5.1-.1.3 0 .4-.1.2-.1.3-.3.4-.5v-.2c0-.1.1-.2.1-.3 0-.1-.1-.1-.1-.2v-.3c0-.2 0-.4-.1-.5-.4-.7-1.2-.9-2-.8-.2 0-.3.1-.4.2-.2.1-.1.2-.3.2-.1 0-.2.1-.2.2v.3c-.1 0-.1 0 0 0M.5-56.3v.2c-.1.1-.1.1-.2.1-.1.1-.1.3-.1.4-.2.1 0 .2 0 .3v.2c0 .1 0 .3.1.4.1.2.3.4.4.5.2.1.4.6.6.6.2 0 .4-.1.5-.1.2 0 .4 0 .6-.1.2-.1.1-.3.3-.5.1-.1.3 0 .4-.1.2-.1.3-.3.4-.5v-.2c0-.1.1-.2.1-.3 0-.1-.1-.1-.1-.2v-.3c0-.2 0-.4-.1-.5-.4-.7-1.2-.9-2-.8-.2 0-.3.1-.4.2-.2.1-.1.2-.3.2-.1 0-.2.1-.2.2v.3" class="st2"/>
      </g>
      <g>
        <path d="M69.4-48.7v.2c-.1.1-.1.1-.2.1-.1.1-.1.3-.1.4-.2.1 0 .2 0 .3v.2c0 .1 0 .3.1.4.1.2.3.4.4.5.2.1.4.6.6.6.2 0 .4-.1.5-.1.2 0 .4 0 .6-.1.2-.1.1-.3.3-.5.1-.1.3 0 .4-.1.2-.1.3-.3.4-.5v-.2c0-.1.1-.2.1-.3 0-.1-.1-.1-.1-.2v-.3c0-.2 0-.4-.1-.5-.4-.7-1.2-.9-2-.8-.2 0-.3.1-.4.2-.2.1-.1.2-.3.2-.1 0-.2.1-.2.2v.3M61.8-48.7v.2c-.1.1-.1.1-.2.1-.1.1-.1.3-.1.4-.2.1 0 .2 0 .3v.2c0 .1 0 .3.1.4.1.2.3.4.4.5.2.1.4.6.6.6.2 0 .4-.1.5-.1.2 0 .4 0 .6-.1.2-.1.1-.3.3-.5.1-.1.3 0 .4-.1.2-.1.3-.3.4-.5v-.2c0-.1.1-.2.1-.3 0-.1-.1-.1-.1-.2v-.3c0-.2 0-.4-.1-.5-.4-.7-1.2-.9-2-.8-.2 0-.3.1-.4.2-.2.1-.1.2-.3.2-.1 0-.2.1-.2.2v.3M54.1-48.7v.2c-.1.1-.1.1-.2.1-.1.1-.1.3-.1.4-.2.1 0 .2 0 .3v.2c0 .1 0 .3.1.4.1.2.3.4.4.5.2.1.4.6.6.6.2 0 .4-.1.5-.1.2 0 .4 0 .6-.1.2-.1.1-.3.3-.5.1-.1.3 0 .4-.1.2-.1.3-.3.4-.5v-.2c0-.1.1-.2.1-.3 0-.1-.1-.1-.1-.2v-.3c0-.2 0-.4-.1-.5-.4-.7-1.2-.9-2-.8-.2 0-.3.1-.4.2-.2.1-.1.2-.3.2-.1 0-.2.1-.2.2v.3M46.5-48.7v.2c-.1.1-.1.1-.2.1-.1.1-.1.3-.1.4-.2.1 0 .2 0 .3v.2c0 .1 0 .3.1.4.1.2.3.4.4.5.2.1.4.6.6.6.2 0 .4-.1.5-.1.2 0 .4 0 .6-.1.2-.1.1-.3.3-.5.1-.1.3 0 .4-.1.2-.1.3-.3.4-.5v-.2c0-.1.1-.2.1-.3 0-.1-.1-.1-.1-.2v-.3c0-.2 0-.4-.1-.5-.4-.7-1.2-.9-2-.8-.2 0-.3.1-.4.2-.2.1-.1.2-.3.2-.1 0-.2.1-.2.2v.3M38.8-48.7v.2c-.1.1-.1.1-.2.1-.1.1-.1.3-.1.4-.2.1 0 .2 0 .3v.2c0 .1 0 .3.1.4.1.2.3.4.4.5.2.1.4.6.6.6.2 0 .4-.1.5-.1.2 0 .4 0 .6-.1.2-.1.1-.3.3-.5.1-.1.3 0 .4-.1.2-.1.3-.3.4-.5v-.2c0-.1.1-.2.1-.3 0-.1-.1-.1-.1-.2v-.3c0-.2 0-.4-.1-.5-.4-.7-1.2-.9-2-.8-.2 0-.3.1-.4.2-.2.1-.1.2-.3.2-.1 0-.2.1-.2.2v.3M31.1-48.7v.2c-.1.1-.1.1-.2.1-.1.1-.1.3-.1.4-.2.1 0 .2 0 .3v.2c0 .1 0 .3.1.4.1.2.3.4.4.5.2.1.4.6.6.6.2 0 .4-.1.5-.1.2 0 .4 0 .6-.1.2-.1.1-.3.3-.5.1-.1.3 0 .4-.1.2-.1.3-.3.4-.5v-.2c0-.1.1-.2.1-.3 0-.1-.1-.1-.1-.2v-.3c0-.2 0-.4-.1-.5-.4-.7-1.2-.9-2-.8-.2 0-.3.1-.4.2-.2.1-.1.2-.3.2-.1 0-.2.1-.2.2v.3M23.5-48.7v.2c-.1.1-.1.1-.2.1-.1.1-.1.3-.1.4-.2.1 0 .2 0 .3v.2c0 .1 0 .3.1.4.1.2.3.4.4.5.2.1.4.6.6.6.2 0 .4-.1.5-.1.2 0 .4 0 .6-.1.2-.1.1-.3.3-.5.1-.1.3 0 .4-.1.2-.1.3-.3.4-.5v-.2c0-.1.1-.2.1-.3 0-.1-.1-.1-.1-.2v-.3c0-.2 0-.4-.1-.5-.4-.7-1.2-.9-2-.8-.2 0-.3.1-.4.2-.2.1-.1.2-.3.2-.1 0-.2.1-.2.2v.3M15.8-48.7v.2c-.1.1-.1.1-.2.1-.1.1-.1.3-.1.4-.2.1 0 .2 0 .3v.2c0 .1 0 .3.1.4.1.2.3.4.4.5.2.1.4.6.6.6.2 0 .4-.1.5-.1.2 0 .4 0 .6-.1.2-.1.1-.3.3-.5.1-.1.3 0 .4-.1.2-.1.3-.3.4-.5v-.2c0-.1.1-.2.1-.3 0-.1-.1-.1-.1-.2v-.3c0-.2 0-.4-.1-.5-.4-.7-1.2-.9-2-.8-.2 0-.3.1-.4.2-.2.1-.1.2-.3.2-.1 0-.2.1-.2.2v.3M8.2-48.7v.2c-.1.1-.2.1-.2.1-.1.1-.1.3-.1.4-.2.1 0 .2 0 .3v.2c0 .1 0 .3.1.4.1.2.3.4.4.5.1.2.3.6.5.6s.4-.1.5-.1c.2 0 .4 0 .6-.1.2-.1.1-.3.3-.5.1-.1.3 0 .4-.1.2-.1.3-.3.4-.5v-.2c0-.1.1-.2.1-.3 0-.1-.1-.1-.1-.2v-.3c0-.2 0-.4-.1-.5-.4-.7-1.2-.9-2-.8-.2 0-.3.1-.4.2-.2.1-.1.2-.3.2-.1 0-.2.1-.2.2.1.3.1.2.1.3-.1 0-.1 0 0 0M.5-48.7v.2c-.1.1-.1.1-.2.1-.1.1-.1.3-.1.4-.2.1 0 .2 0 .3v.2c0 .1 0 .3.1.4.1.2.3.4.4.5.2.2.3.6.6.6.2 0 .4-.1.5-.1.2 0 .4 0 .6-.1.2-.1.1-.3.3-.5.1-.1.3 0 .4-.1.2-.1.3-.3.4-.5v-.2c0-.1.1-.2.1-.3 0-.1-.1-.1-.1-.2v-.3c0-.2 0-.4-.1-.5-.4-.7-1.2-.9-2-.8-.2 0-.3.1-.4.2-.2.1-.1.2-.3.2-.1 0-.2.1-.2.2v.3" class="st2"/>
      </g>
      <g>
        <path d="M69.4-41v.2c-.1.1-.1.1-.2.1-.1.1-.1.3-.1.4-.2.1 0 .2 0 .3v.2c0 .1 0 .3.1.4.1.2.3.4.4.5.2.1.4.6.6.6.2 0 .4-.1.5-.1.2 0 .4 0 .6-.1.2-.1.1-.3.3-.5.1-.1.3 0 .4-.1.2-.1.3-.3.4-.5v-.2c0-.1.1-.2.1-.3 0-.1-.1-.1-.1-.2v-.3c0-.2 0-.4-.1-.5-.4-.7-1.2-.9-2-.8-.2 0-.3.1-.4.2-.2.1-.1.2-.3.2-.1 0-.2.1-.2.2v.3M61.8-41v.2c-.1.1-.1.1-.2.1-.1.1-.1.3-.1.4-.2.1 0 .2 0 .3v.2c0 .1 0 .3.1.4.1.2.3.4.4.5.2.1.4.6.6.6.2 0 .4-.1.5-.1.2 0 .4 0 .6-.1.2-.1.1-.3.3-.5.1-.1.3 0 .4-.1.2-.1.3-.3.4-.5v-.2c0-.1.1-.2.1-.3 0-.1-.1-.1-.1-.2v-.3c0-.2 0-.4-.1-.5-.4-.7-1.2-.9-2-.8-.2 0-.3.1-.4.2-.2.1-.1.2-.3.2-.1 0-.2.1-.2.2v.3M54.1-41v.2c-.1.1-.1.1-.2.1-.1.1-.1.3-.1.4-.2.1 0 .2 0 .3v.2c0 .1 0 .3.1.4.1.2.3.4.4.5.2.1.4.6.6.6.2 0 .4-.1.5-.1.2 0 .4 0 .6-.1.2-.1.1-.3.3-.5.1-.1.3 0 .4-.1.2-.1.3-.3.4-.5v-.2c0-.1.1-.2.1-.3 0-.1-.1-.1-.1-.2v-.3c0-.2 0-.4-.1-.5-.4-.7-1.2-.9-2-.8-.2 0-.3.1-.4.2-.2.1-.1.2-.3.2-.1 0-.2.1-.2.2v.3M46.5-41v.2c-.1.1-.1.1-.2.1-.1.1-.1.3-.1.4-.2.1 0 .2 0 .3v.2c0 .1 0 .3.1.4.1.2.3.4.4.5.2.1.4.6.6.6.2 0 .4-.1.5-.1.2 0 .4 0 .6-.1.2-.1.1-.3.3-.5.1-.1.3 0 .4-.1.2-.1.3-.3.4-.5v-.2c0-.1.1-.2.1-.3 0-.1-.1-.1-.1-.2v-.3c0-.2 0-.4-.1-.5-.4-.7-1.2-.9-2-.8-.2 0-.3.1-.4.2-.2.1-.1.2-.3.2-.1 0-.2.1-.2.2v.3M38.8-41v.2c-.1.1-.1.1-.2.1-.1.1-.1.3-.1.4-.2.1 0 .2 0 .3v.2c0 .1 0 .3.1.4.1.2.3.4.4.5.2.1.4.6.6.6.2 0 .4-.1.5-.1.2 0 .4 0 .6-.1.2-.1.1-.3.3-.5.1-.1.3 0 .4-.1.2-.1.3-.3.4-.5v-.2c0-.1.1-.2.1-.3 0-.1-.1-.1-.1-.2v-.3c0-.2 0-.4-.1-.5-.4-.7-1.2-.9-2-.8-.2 0-.3.1-.4.2-.2.1-.1.2-.3.2-.1 0-.2.1-.2.2v.3M31.1-41v.2c-.1.1-.1.1-.2.1-.1.1-.1.3-.1.4-.2.1 0 .2 0 .3v.2c0 .1 0 .3.1.4.1.2.3.4.4.5.2.1.4.6.6.6.2 0 .4-.1.5-.1.2 0 .4 0 .6-.1.2-.1.1-.3.3-.5.1-.1.3 0 .4-.1.2-.1.3-.3.4-.5v-.2c0-.1.1-.2.1-.3 0-.1-.1-.1-.1-.2v-.3c0-.2 0-.4-.1-.5-.4-.7-1.2-.9-2-.8-.2 0-.3.1-.4.2-.2.1-.1.2-.3.2-.1 0-.2.1-.2.2v.3M23.5-41v.2c-.1.1-.1.1-.2.1-.1.1-.1.3-.1.4-.2.1 0 .2 0 .3v.2c0 .1 0 .3.1.4.1.2.3.4.4.5.2.1.4.6.6.6.2 0 .4-.1.5-.1.2 0 .4 0 .6-.1.2-.1.1-.3.3-.5.1-.1.3 0 .4-.1.2-.1.3-.3.4-.5v-.2c0-.1.1-.2.1-.3 0-.1-.1-.1-.1-.2v-.3c0-.2 0-.4-.1-.5-.4-.7-1.2-.9-2-.8-.2 0-.3.1-.4.2-.2.1-.1.2-.3.2-.1 0-.2.1-.2.2v.3M15.8-41v.2c-.1.1-.1.1-.2.1-.1.1-.1.3-.1.4-.2.1 0 .2 0 .3v.2c0 .1 0 .3.1.4.1.2.3.4.4.5.2.1.4.6.6.6.2 0 .4-.1.5-.1.2 0 .4 0 .6-.1.2-.1.1-.3.3-.5.1-.1.3 0 .4-.1.2-.1.3-.3.4-.5v-.2c0-.1.1-.2.1-.3 0-.1-.1-.1-.1-.2v-.3c0-.2 0-.4-.1-.5-.4-.7-1.2-.9-2-.8-.2 0-.3.1-.4.2-.2.1-.1.2-.3.2-.1 0-.2.1-.2.2v.3M8.2-41v.2c-.1 0-.2 0-.2.1-.1.1-.1.3-.1.4-.2.1 0 .2 0 .3v.2c0 .1 0 .3.1.4.1.2.3.4.4.5.2.1.4.6.6.6.2 0 .4-.1.5-.1.2 0 .4 0 .6-.1.2-.1.1-.3.3-.5.1-.1.3 0 .4-.1.2-.1.3-.3.4-.5v-.2c0-.1.1-.2.1-.3 0-.1-.1-.1-.1-.2v-.3c0-.2 0-.4-.1-.5-.4-.7-1.2-.9-2-.8-.2 0-.3.1-.4.2-.2.1-.1.2-.3.2-.1 0-.2.1-.2.2v.3c-.1 0-.1 0 0 0M.5-41v.2c-.1.1-.1.1-.2.1-.1.1-.1.3-.1.4-.2.1 0 .2 0 .3v.2c0 .1 0 .3.1.4.1.2.3.4.4.5.2.1.4.6.6.6.2 0 .4-.1.5-.1.2 0 .4 0 .6-.1.2-.1.1-.3.3-.5h.4c.2-.1.3-.3.4-.5v-.2c0-.1.1-.2.1-.3 0-.1-.1-.1-.1-.2v-.3c0-.2 0-.4-.1-.5-.4-.7-1.2-.9-2-.8-.2 0-.3.1-.4.2-.2.1-.1.2-.3.2-.1 0-.2.1-.2.2v.2" class="st2"/>
      </g>
      <g>
        <path d="M69.4-33.4v.2c-.1.1-.1.1-.2.1-.1.1-.1.3-.1.4-.2.1 0 .2 0 .3v.2c0 .1 0 .3.1.4.1.2.3.4.4.5.2.1.4.6.6.6.2 0 .4-.1.5-.1.2 0 .4 0 .6-.1.2-.1.1-.3.3-.5.1-.1.3 0 .4-.1.2-.1.3-.3.4-.5v-.2c0-.1.1-.2.1-.3 0-.1-.1-.1-.1-.2v-.3c0-.2 0-.4-.1-.5-.4-.7-1.2-.9-2-.8-.2 0-.3.1-.4.2-.2.1-.1.2-.3.2-.1 0-.2.1-.2.2v.3M61.8-33.4v.2c-.1.1-.1.1-.2.1-.1.1-.1.3-.1.4-.2.1 0 .2 0 .3v.2c0 .1 0 .3.1.4.1.2.3.4.4.5.2.1.4.6.6.6.2 0 .4-.1.5-.1.2 0 .4 0 .6-.1.2-.1.1-.3.3-.5.1-.1.3 0 .4-.1.2-.1.3-.3.4-.5v-.2c0-.1.1-.2.1-.3 0-.1-.1-.1-.1-.2v-.3c0-.2 0-.4-.1-.5-.4-.7-1.2-.9-2-.8-.2 0-.3.1-.4.2-.2.1-.1.2-.3.2-.1 0-.2.1-.2.2v.3M54.1-33.4v.2c-.1.1-.1.1-.2.1-.1.1-.1.3-.1.4-.2.1 0 .2 0 .3v.2c0 .1 0 .3.1.4.1.2.3.4.4.5.2.1.4.6.6.6.2 0 .4-.1.5-.1.2 0 .4 0 .6-.1.2-.1.1-.3.3-.5.1-.1.3 0 .4-.1.2-.1.3-.3.4-.5v-.2c0-.1.1-.2.1-.3 0-.1-.1-.1-.1-.2v-.3c0-.2 0-.4-.1-.5-.4-.7-1.2-.9-2-.8-.2 0-.3.1-.4.2-.2.1-.1.2-.3.2-.1 0-.2.1-.2.2v.3M46.5-33.4v.2c-.1.1-.1.1-.2.1-.1.1-.1.3-.1.4-.2.1 0 .2 0 .3v.2c0 .1 0 .3.1.4.1.2.3.4.4.5.2.1.4.6.6.6.2 0 .4-.1.5-.1.2 0 .4 0 .6-.1.2-.1.1-.3.3-.5.1-.1.3 0 .4-.1.2-.1.3-.3.4-.5v-.2c0-.1.1-.2.1-.3 0-.1-.1-.1-.1-.2v-.3c0-.2 0-.4-.1-.5-.4-.7-1.2-.9-2-.8-.2 0-.3.1-.4.2-.2.1-.1.2-.3.2-.1 0-.2.1-.2.2v.3M38.8-33.4v.2c-.1.1-.1.1-.2.1-.1.1-.1.3-.1.4-.2.1 0 .2 0 .3v.2c0 .1 0 .3.1.4.1.2.3.4.4.5.2.1.4.6.6.6.2 0 .4-.1.5-.1.2 0 .4 0 .6-.1.2-.1.1-.3.3-.5.1-.1.3 0 .4-.1.2-.1.3-.3.4-.5v-.2c0-.1.1-.2.1-.3 0-.1-.1-.1-.1-.2v-.3c0-.2 0-.4-.1-.5-.4-.7-1.2-.9-2-.8-.2 0-.3.1-.4.2-.2.1-.1.2-.3.2-.1 0-.2.1-.2.2v.3M31.1-33.4v.2c-.1.1-.1.1-.2.1-.1.1-.1.3-.1.4-.2.1 0 .2 0 .3v.2c0 .1 0 .3.1.4.1.2.3.4.4.5.2.1.4.6.6.6.2 0 .4-.1.5-.1.2 0 .4 0 .6-.1.2-.1.1-.3.3-.5.1-.1.3 0 .4-.1.2-.1.3-.3.4-.5v-.2c0-.1.1-.2.1-.3 0-.1-.1-.1-.1-.2v-.3c0-.2 0-.4-.1-.5-.4-.7-1.2-.9-2-.8-.2 0-.3.1-.4.2-.2.1-.1.2-.3.2-.1 0-.2.1-.2.2v.3M23.5-33.4v.2c-.1.1-.1.1-.2.1-.1.1-.1.3-.1.4-.2.1 0 .2 0 .3v.2c0 .1 0 .3.1.4.1.2.3.4.4.5.2.1.4.6.6.6.2 0 .4-.1.5-.1.2 0 .4 0 .6-.1.2-.1.1-.3.3-.5.1-.1.3 0 .4-.1.2-.1.3-.3.4-.5v-.2c0-.1.1-.2.1-.3 0-.1-.1-.1-.1-.2v-.3c0-.2 0-.4-.1-.5-.4-.7-1.2-.9-2-.8-.2 0-.3.1-.4.2-.2.1-.1.2-.3.2-.1 0-.2.1-.2.2v.3M15.8-33.4v.2c-.1.1-.1.1-.2.1-.1.1-.1.3-.1.4-.2.1 0 .2 0 .3v.2c0 .1 0 .3.1.4.1.2.3.4.4.5.2.1.4.6.6.6.2 0 .4-.1.5-.1.2 0 .4 0 .6-.1.2-.1.1-.3.3-.5.1-.1.3 0 .4-.1.2-.1.3-.3.4-.5v-.2c0-.1.1-.2.1-.3 0-.1-.1-.1-.1-.2v-.3c0-.2 0-.4-.1-.5-.4-.7-1.2-.9-2-.8-.2 0-.3.1-.4.2-.2.1-.1.2-.3.2-.1 0-.2.1-.2.2v.3M8.2-33.4v.2c-.1.1-.2.1-.2.1-.1.1-.1.3-.1.4-.2.1 0 .2 0 .3v.2c0 .1 0 .3.1.4.1.2.3.4.4.5.2.1.4.6.6.6.2 0 .4-.1.5-.1.2 0 .4 0 .6-.1.2-.1.1-.3.3-.5.1-.1.3 0 .4-.1.2-.1.3-.3.4-.5v-.2c0-.1.1-.2.1-.3 0-.1-.1-.1-.1-.2v-.3c0-.2 0-.4-.1-.5-.4-.7-1.2-.9-2-.8-.2 0-.3.1-.4.2-.2.1-.1.2-.3.2-.1 0-.2.1-.2.2v.3c-.1 0-.1 0 0 0M.5-33.4v.2c-.1.1-.1.1-.2.1-.1.1-.1.3-.1.4-.2.1 0 .2 0 .3v.2c0 .1 0 .3.1.4.1.2.3.4.4.5.2.1.4.6.6.6.2 0 .4-.1.5-.1.2 0 .4 0 .6-.1.2-.1.1-.3.3-.5.1-.1.3 0 .4-.1.2-.1.3-.3.4-.5v-.2c0-.1.1-.2.1-.3 0-.1-.1-.1-.1-.2v-.3c0-.2 0-.4-.1-.5-.4-.7-1.2-.9-2-.8-.2 0-.3.1-.4.2-.2.1-.1.2-.3.2-.1 0-.2.1-.2.2v.3" class="st2"/>
      </g>
      <g>
        <path d="M69.4-25.7v.2c-.1.1-.1.1-.2.1-.1.1-.1.3-.1.4-.2.1 0 .2 0 .3v.2c0 .1 0 .3.1.4.1.2.3.4.4.5.2.1.4.6.6.6.2 0 .4-.1.5-.1.2 0 .4 0 .6-.1.2-.1.1-.3.3-.5.1-.1.3 0 .4-.1.2-.1.3-.3.4-.5v-.2c0-.1.1-.2.1-.3 0-.1-.1-.1-.1-.2v-.3c0-.2 0-.4-.1-.5-.4-.7-1.2-.9-2-.8-.2 0-.3.1-.4.2-.2.1-.1.2-.3.2-.1 0-.2.1-.2.2v.3M61.8-25.7v.2c-.1.1-.1.1-.2.1-.1.1-.1.3-.1.4-.2.1 0 .2 0 .3v.2c0 .1 0 .3.1.4.1.2.3.4.4.5.2.1.4.6.6.6.2 0 .4-.1.5-.1.2 0 .4 0 .6-.1.2-.1.1-.3.3-.5.1-.1.3 0 .4-.1.2-.1.3-.3.4-.5v-.2c0-.1.1-.2.1-.3 0-.1-.1-.1-.1-.2v-.3c0-.2 0-.4-.1-.5-.4-.7-1.2-.9-2-.8-.2 0-.3.1-.4.2-.2.1-.1.2-.3.2-.1 0-.2.1-.2.2v.3M54.1-25.7v.2c-.1.1-.1.1-.2.1-.1.1-.1.3-.1.4-.2.1 0 .2 0 .3v.2c0 .1 0 .3.1.4.1.2.3.4.4.5.2.1.4.6.6.6.2 0 .4-.1.5-.1.2 0 .4 0 .6-.1.2-.1.1-.3.3-.5.1-.1.3 0 .4-.1.2-.1.3-.3.4-.5v-.2c0-.1.1-.2.1-.3 0-.1-.1-.1-.1-.2v-.3c0-.2 0-.4-.1-.5-.4-.7-1.2-.9-2-.8-.2 0-.3.1-.4.2-.2.1-.1.2-.3.2-.1 0-.2.1-.2.2v.3M46.5-25.7v.2c-.1.1-.1.1-.2.1-.1.1-.1.3-.1.4-.2.1 0 .2 0 .3v.2c0 .1 0 .3.1.4.1.2.3.4.4.5.2.1.4.6.6.6.2 0 .4-.1.5-.1.2 0 .4 0 .6-.1.2-.1.1-.3.3-.5.1-.1.3 0 .4-.1.2-.1.3-.3.4-.5v-.2c0-.1.1-.2.1-.3 0-.1-.1-.1-.1-.2v-.3c0-.2 0-.4-.1-.5-.4-.7-1.2-.9-2-.8-.2 0-.3.1-.4.2-.2.1-.1.2-.3.2-.1 0-.2.1-.2.2v.3M38.8-25.7v.2c-.1.1-.1.1-.2.1-.1.1-.1.3-.1.4-.2.1 0 .2 0 .3v.2c0 .1 0 .3.1.4.1.2.3.4.4.5.2.1.4.6.6.6.2 0 .4-.1.5-.1.2 0 .4 0 .6-.1.2-.1.1-.3.3-.5.1-.1.3 0 .4-.1.2-.1.3-.3.4-.5v-.2c0-.1.1-.2.1-.3 0-.1-.1-.1-.1-.2v-.3c0-.2 0-.4-.1-.5-.4-.7-1.2-.9-2-.8-.2 0-.3.1-.4.2-.2.1-.1.2-.3.2-.1 0-.2.1-.2.2v.3M31.1-25.7v.2c-.1.1-.1.1-.2.1-.1.1-.1.3-.1.4-.2.1 0 .2 0 .3v.2c0 .1 0 .3.1.4.1.2.3.4.4.5.2.1.4.6.6.6.2 0 .4-.1.5-.1.2 0 .4 0 .6-.1.2-.1.1-.3.3-.5.1-.1.3 0 .4-.1.2-.1.3-.3.4-.5v-.2c0-.1.1-.2.1-.3 0-.1-.1-.1-.1-.2v-.3c0-.2 0-.4-.1-.5-.4-.7-1.2-.9-2-.8-.2 0-.3.1-.4.2-.2.1-.1.2-.3.2-.1 0-.2.1-.2.2v.3M23.5-25.7v.2c-.1.1-.1.1-.2.1-.1.1-.1.3-.1.4-.2.1 0 .2 0 .3v.2c0 .1 0 .3.1.4.1.2.3.4.4.5.2.1.4.6.6.6.2 0 .4-.1.5-.1.2 0 .4 0 .6-.1.2-.1.1-.3.3-.5.1-.1.3 0 .4-.1.2-.1.3-.3.4-.5v-.2c0-.1.1-.2.1-.3 0-.1-.1-.1-.1-.2v-.3c0-.2 0-.4-.1-.5-.4-.7-1.2-.9-2-.8-.2 0-.3.1-.4.2-.2.1-.1.2-.3.2-.1 0-.2.1-.2.2v.3M15.8-25.7v.2c-.1.1-.1.1-.2.1-.1.1-.1.3-.1.4-.2.1 0 .2 0 .3v.2c0 .1 0 .3.1.4.1.2.3.4.4.5.2.1.4.6.6.6.2 0 .4-.1.5-.1.2 0 .4 0 .6-.1.2-.1.1-.3.3-.5.1-.1.3 0 .4-.1.2-.1.3-.3.4-.5v-.2c0-.1.1-.2.1-.3 0-.1-.1-.1-.1-.2v-.3c0-.2 0-.4-.1-.5-.4-.7-1.2-.9-2-.8-.2 0-.3.1-.4.2-.2.1-.1.2-.3.2-.1 0-.2.1-.2.2v.3M8.2-25.7v.2c-.1.1-.2 0-.2.1-.1.1-.1.3-.1.4-.2.1 0 .2 0 .3v.2c0 .1 0 .3.1.4 0 .1.2.3.3.5.2.1.4.6.6.6.2 0 .4-.1.5-.1.2 0 .4 0 .6-.1.2-.1.1-.3.3-.5.1-.1.3 0 .4-.1.2-.1.3-.3.4-.5v-.2c0-.1.1-.2.1-.3 0-.1-.1-.1-.1-.2v-.3c0-.2 0-.4-.1-.5-.4-.7-1.2-.9-2-.8-.2 0-.3.1-.4.2-.2.1-.1.2-.3.2-.1 0-.2.1-.2.2.1.2.1.2.1.3-.1 0-.1 0 0 0M.5-25.7v.2c-.1.1-.1.1-.2.1-.1.1-.1.3-.1.4-.2.1 0 .2 0 .3v.2c0 .1 0 .3.1.4.1.2.3.4.4.5.2.1.3.5.6.6.2 0 .4-.1.5-.1.2 0 .4 0 .6-.1.2-.1.1-.3.3-.5.1-.1.3 0 .4-.1.2-.1.3-.3.4-.5v-.2c0-.1.1-.2.1-.3 0-.1-.1-.1-.1-.2v-.3c0-.2 0-.4-.1-.5-.4-.7-1.2-.9-2-.8-.2 0-.3.1-.4.2-.2.1-.1.2-.3.2-.1 0-.2.1-.2.2v.3" class="st2"/>
      </g>
      <g>
        <path d="M69.4-18.1v.2c-.1.1-.1.1-.2.1-.1.1-.1.3-.1.4-.2.1 0 .2 0 .3v.2c0 .1 0 .3.1.4.1.2.3.4.4.5.2.1.4.6.6.6.2 0 .4-.1.5-.1.2 0 .4 0 .6-.1.2-.1.1-.3.3-.5.1-.1.3 0 .4-.1.2-.1.3-.3.4-.5v-.2c0-.1.1-.2.1-.3 0-.1-.1-.1-.1-.2v-.3c0-.2 0-.4-.1-.5-.4-.7-1.2-.9-2-.8-.2 0-.3.1-.4.2-.2.1-.1.2-.3.2-.1 0-.2.1-.2.2v.3c0 .1 0 0 0 0M61.8-18.1v.2c-.1.1-.1.1-.2.1-.1.1-.1.3-.1.4-.2.1 0 .2 0 .3v.2c0 .1 0 .3.1.4.1.2.3.4.4.5.2.1.4.6.6.6.2 0 .4-.1.5-.1.2 0 .4 0 .6-.1.2-.1.1-.3.3-.5.1-.1.3 0 .4-.1.2-.1.3-.3.4-.5v-.2c0-.1.1-.2.1-.3 0-.1-.1-.1-.1-.2v-.3c0-.2 0-.4-.1-.5-.4-.7-1.2-.9-2-.8-.2 0-.3.1-.4.2-.2.1-.1.2-.3.2-.1 0-.2.1-.2.2v.3c0 .1 0 0 0 0M54.1-18.1v.2c-.1.1-.1.1-.2.1-.1.1-.1.3-.1.4-.2.1 0 .2 0 .3v.2c0 .1 0 .3.1.4.1.2.3.4.4.5.2.1.4.6.6.6.2 0 .4-.1.5-.1.2 0 .4 0 .6-.1.2-.1.1-.3.3-.5.1-.1.3 0 .4-.1.2-.1.3-.3.4-.5v-.2c0-.1.1-.2.1-.3 0-.1-.1-.1-.1-.2v-.3c0-.2 0-.4-.1-.5-.4-.7-1.2-.9-2-.8-.2 0-.3.1-.4.2-.2.1-.1.2-.3.2-.1 0-.2.1-.2.2v.3c0 .1 0 0 0 0M46.5-18.1v.2c-.1.1-.1.1-.2.1-.1.1-.1.3-.1.4-.2.1 0 .2 0 .3v.2c0 .1 0 .3.1.4.1.2.3.4.4.5.2.1.4.6.6.6.2 0 .4-.1.5-.1.2 0 .4 0 .6-.1.2-.1.1-.3.3-.5.1-.1.3 0 .4-.1.2-.1.3-.3.4-.5v-.2c0-.1.1-.2.1-.3 0-.1-.1-.1-.1-.2v-.3c0-.2 0-.4-.1-.5-.4-.7-1.2-.9-2-.8-.2 0-.3.1-.4.2-.2.1-.1.2-.3.2-.1 0-.2.1-.2.2v.3c0 .1 0 0 0 0M38.8-18.1v.2c-.1.1-.1.1-.2.1-.1.1-.1.3-.1.4-.2.1 0 .2 0 .3v.2c0 .1 0 .3.1.4.1.2.3.4.4.5.2.1.4.6.6.6.2 0 .4-.1.5-.1.2 0 .4 0 .6-.1.2-.1.1-.3.3-.5.1-.1.3 0 .4-.1.2-.1.3-.3.4-.5v-.2c0-.1.1-.2.1-.3 0-.1-.1-.1-.1-.2v-.3c0-.2 0-.4-.1-.5-.4-.7-1.2-.9-2-.8-.2 0-.3.1-.4.2-.2.1-.1.2-.3.2-.1 0-.2.1-.2.2v.3c0 .1 0 0 0 0M31.1-18.1v.2c-.1.1-.1.1-.2.1-.1.1-.1.3-.1.4-.2.1 0 .2 0 .3v.2c0 .1 0 .3.1.4.1.2.3.4.4.5.2.1.4.6.6.6.2 0 .4-.1.5-.1.2 0 .4 0 .6-.1.2-.1.1-.3.3-.5.1-.1.3 0 .4-.1.2-.1.3-.3.4-.5v-.2c0-.1.1-.2.1-.3 0-.1-.1-.1-.1-.2v-.3c0-.2 0-.4-.1-.5-.4-.7-1.2-.9-2-.8-.2 0-.3.1-.4.2-.2.1-.1.2-.3.2-.1 0-.2.1-.2.2v.3c0 .1 0 0 0 0M23.5-18.1v.2c-.1.1-.1.1-.2.1-.1.1-.1.3-.1.4-.2.1 0 .2 0 .3v.2c0 .1 0 .3.1.4.1.2.3.4.4.5.2.1.4.6.6.6.2 0 .4-.1.5-.1.2 0 .4 0 .6-.1.2-.1.1-.3.3-.5.1-.1.3 0 .4-.1.2-.1.3-.3.4-.5v-.2c0-.1.1-.2.1-.3 0-.1-.1-.1-.1-.2v-.3c0-.2 0-.4-.1-.5-.4-.7-1.2-.9-2-.8-.2 0-.3.1-.4.2-.2.1-.1.2-.3.2-.1 0-.2.1-.2.2v.3c0 .1 0 0 0 0M15.8-18.1v.2c-.1.1-.1.1-.2.1-.1.1-.1.3-.1.4-.2.1 0 .2 0 .3v.2c0 .1 0 .3.1.4.1.2.3.4.4.5.2.1.4.6.6.6.2 0 .4-.1.5-.1.2 0 .4 0 .6-.1.2-.1.1-.3.3-.5.1-.1.3 0 .4-.1.2-.1.3-.3.4-.5v-.2c0-.1.1-.2.1-.3 0-.1-.1-.1-.1-.2v-.3c0-.2 0-.4-.1-.5-.4-.7-1.2-.9-2-.8-.2 0-.3.1-.4.2-.2.1-.1.2-.3.2-.1 0-.2.1-.2.2v.3c0 .1 0 0 0 0M8.2-18.1v.2c-.1.1-.2.1-.2.1-.1.1-.1.3-.1.4-.2.1 0 .2 0 .3v.2c0 .1 0 .3.1.4 0 .2.2.4.3.5.2.1.4.6.6.6.2 0 .4-.1.5-.1.2 0 .4 0 .6-.1.2-.1.1-.3.3-.5.1-.1.3 0 .4-.1.2-.1.3-.3.4-.5v-.2c0-.1.1-.2.1-.3 0-.1-.1-.1-.1-.2v-.3c0-.2 0-.4-.1-.5-.4-.7-1.2-.9-2-.8-.2 0-.3.1-.4.2-.2.1-.1.2-.3.2-.1 0-.2.1-.2.2.1.3.1.2.1.3-.1.1-.1 0 0 0M.5-18.1v.2c-.1.1-.1.1-.2.1-.1.1-.1.3-.1.4-.2.1 0 .2 0 .3v.2c0 .1 0 .3.1.4.1.2.3.4.4.5.2.1.4.6.6.6.2 0 .4-.1.5-.1.2 0 .4 0 .6-.1.2-.1.1-.3.3-.5.1 0 .3.1.4.1.2-.1.3-.3.4-.5v-.2c0-.1.1-.2.1-.3 0-.1-.1-.1-.1-.2v-.3c0-.2 0-.4-.1-.5-.4-.7-1.2-.9-2-.8-.2 0-.3.1-.4.2-.2.1-.1.2-.3.2-.1 0-.2.1-.2.2v.1c0 .1 0 0 0 0" class="st2"/>
      </g>
      <g>
        <path d="M69.4-10.4v.2c-.1.1-.1.1-.2.1-.1.1-.1.3-.1.4-.2.1 0 .2 0 .3v.2c0 .1 0 .3.1.4.1.2.3.4.4.5.2.1.4.6.6.6.2 0 .4-.1.5-.1.2 0 .4 0 .6-.1.2-.1.1-.3.3-.5.1-.1.3 0 .4-.1.2-.1.3-.3.4-.5v-.2c0-.1.1-.2.1-.3 0-.1-.1-.1-.1-.2v-.3c0-.2 0-.4-.1-.5-.4-.7-1.2-.9-2-.8-.2 0-.3.1-.4.2-.2.1-.1.2-.3.2-.1 0-.2.1-.2.2v.3M61.8-10.4v.2c-.1.1-.1.1-.2.1-.1.1-.1.3-.1.4-.2.1 0 .2 0 .3v.2c0 .1 0 .3.1.4.1.2.3.4.4.5.2.1.4.6.6.6.2 0 .4-.1.5-.1.2 0 .4 0 .6-.1.2-.1.1-.3.3-.4.1-.1.3 0 .4-.1.2-.1.3-.3.4-.5v-.2c0-.1.1-.2.1-.3 0-.1-.1-.1-.1-.2v-.3c0-.2 0-.4-.1-.5-.4-.7-1.2-.9-2-.8-.2 0-.3.1-.4.2-.2.1-.1.2-.3.2-.1 0-.2.1-.2.2v.2M54.1-10.4v.2c-.1.1-.1.1-.2.1-.1.1-.1.3-.1.4-.2.1 0 .2 0 .3v.2c0 .1 0 .3.1.4.1.2.3.4.4.5.2.1.4.6.6.6.2 0 .4-.1.5-.1.2 0 .4 0 .6-.1.2-.1.1-.3.3-.5.1-.1.3 0 .4-.1.2-.1.3-.3.4-.5v-.2c0-.1.1-.2.1-.3 0-.1-.1-.1-.1-.2v-.3c0-.2 0-.4-.1-.5-.4-.7-1.2-.9-2-.8-.2 0-.3.1-.4.2-.2.1-.1.2-.3.2-.1 0-.2.1-.2.2v.3M46.5-10.4v.2c-.1.1-.1.1-.2.1-.1.1-.1.3-.1.4-.2.1 0 .2 0 .3v.2c0 .1 0 .3.1.4.1.2.3.4.4.5.2.1.4.6.6.6.2 0 .4-.1.5-.1.2 0 .4 0 .6-.1.2-.1.1-.3.3-.5.1-.1.3 0 .4-.1.2-.1.3-.3.4-.5v-.2c0-.1.1-.2.1-.3 0-.1-.1-.1-.1-.2v-.3c0-.2 0-.4-.1-.5-.4-.7-1.2-.9-2-.8-.2 0-.3.1-.4.2-.2.1-.1.2-.3.2-.1 0-.2.1-.2.2v.3M38.8-10.4v.2c-.1.1-.1.1-.2.1-.1.1-.1.3-.1.4-.2.1 0 .2 0 .3v.2c0 .1 0 .3.1.4.1.2.3.4.4.5.2.1.4.6.6.6.2 0 .4-.1.5-.1.2 0 .4 0 .6-.1.2-.1.1-.3.3-.4.1-.1.3 0 .4-.1.2-.1.3-.3.4-.5v-.2c0-.1.1-.2.1-.3 0-.1-.1-.1-.1-.2v-.3c0-.2 0-.4-.1-.5-.4-.7-1.2-.9-2-.8-.2 0-.3.1-.4.2-.2.1-.1.2-.3.2-.1 0-.2.1-.2.2v.2M31.1-10.4v.2c-.1.1-.1.1-.2.1-.1.1-.1.3-.1.4-.2.1 0 .2 0 .3v.2c0 .1 0 .3.1.4.1.2.3.4.4.5.2.1.4.6.6.6.2 0 .4-.1.5-.1.2 0 .4 0 .6-.1.2-.1.1-.3.3-.5.1-.1.3 0 .4-.1.2-.1.3-.3.4-.5v-.2c0-.1.1-.2.1-.3 0-.1-.1-.1-.1-.2v-.3c0-.2 0-.4-.1-.5-.4-.7-1.2-.9-2-.8-.2 0-.3.1-.4.2-.2.1-.1.2-.3.2-.1 0-.2.1-.2.2v.3M23.5-10.4v.2c-.1.1-.1.1-.2.1-.1.1-.1.3-.1.4-.2.1 0 .2 0 .3v.2c0 .1 0 .3.1.4.1.2.3.4.4.5.2.1.4.6.6.6.2 0 .4-.1.5-.1.2 0 .4 0 .6-.1.2-.1.1-.3.3-.5.1-.1.3 0 .4-.1.2-.1.3-.3.4-.5v-.2c0-.1.1-.2.1-.3 0-.1-.1-.1-.1-.2v-.3c0-.2 0-.4-.1-.5-.4-.7-1.2-.9-2-.8-.2 0-.3.1-.4.2-.2.1-.1.2-.3.2-.1 0-.2.1-.2.2v.3M15.8-10.4v.2c-.1.1-.1.1-.2.1-.1.1-.1.3-.1.4-.2.1 0 .2 0 .3v.2c0 .1 0 .3.1.4.1.2.3.4.4.5.2.1.4.6.6.6.2 0 .4-.1.5-.1.2 0 .4 0 .6-.1.2-.1.1-.3.3-.4.1-.1.3 0 .4-.1.2-.1.3-.3.4-.5v-.2c0-.1.1-.2.1-.3 0-.1-.1-.1-.1-.2v-.3c0-.2 0-.4-.1-.5-.4-.7-1.2-.9-2-.8-.2 0-.3.1-.4.2-.2.1-.1.2-.3.2-.1 0-.2.1-.2.2v.2M8.2-10.4v.2c-.1.1-.2 0-.2.1-.1.1-.1.3-.1.3-.2.1 0 .2 0 .3v.2c0 .1 0 .3.1.4 0 .2.2.4.3.6.2.1.4.6.6.6.2 0 .4-.1.5-.1.2 0 .4 0 .6-.1.2-.1.1-.3.3-.5.1-.1.3 0 .4-.1.2-.1.3-.3.4-.5v-.2c0-.1.1-.2.1-.3 0-.1-.1-.1-.1-.2v-.3c0-.2 0-.4-.1-.5-.4-.7-1.2-.9-2-.8-.2 0-.3.1-.4.2-.2.1-.1.2-.3.2-.1 0-.2.1-.2.2.1.2.1.2.1.3-.1 0-.1 0 0 0M.5-10.4v.2c-.1.1-.1.1-.2.1 0 .1-.1.3-.1.3-.2.1 0 .2 0 .3v.2c0 .1 0 .3.1.4.1.2.3.4.4.5.2.2.3.6.6.7.2 0 .4-.1.5-.1.2 0 .4 0 .6-.1.2-.1.1-.3.3-.4.1-.1.3 0 .4-.1.2-.1.3-.3.4-.5v-.2c0-.1.1-.2.1-.3 0-.1-.1-.1-.1-.2v-.3c0-.2 0-.4-.1-.5-.4-.7-1.2-.9-2-.8-.2 0-.3.1-.4.2-.2.1-.1.2-.3.2-.1 0-.2.1-.2.2v.2" class="st2"/>
      </g>
    </g>
    <g>
      <path d="M69.4-2.8v.2c-.1.1-.1.1-.2.1-.1.1-.1.3-.1.4-.2.1 0 .2 0 .3v.2c0 .1 0 .3.1.4.1.2.3.4.4.5.2.2.4.6.6.7.2 0 .4-.1.5-.1.2 0 .4 0 .6-.1.2-.1.1-.3.3-.5.1-.1.3 0 .4-.1.2-.1.3-.3.4-.5v-.2c0-.1.1-.2.1-.3 0-.1-.1-.1-.1-.2v-.3c0-.2 0-.4-.1-.5-.4-.7-1.2-.9-2-.8-.2 0-.3.1-.4.2-.2.1-.1.2-.3.2-.1 0-.2.1-.2.2v.2c0 .1 0 0 0 0M61.8-2.8v.2c-.1.1-.1.1-.2.1-.1.1-.1.3-.1.4-.2.1 0 .2 0 .3v.2c0 .1 0 .3.1.4 0 .2.2.4.4.5.2.1.4.6.6.6.2 0 .4-.1.5-.1.2 0 .4 0 .6-.1.2-.1.1-.3.3-.5.1-.1.3 0 .4-.1.2-.1.3-.3.4-.5v-.2c0-.1.1-.2.1-.3 0-.1-.1-.1-.1-.2v-.3c0-.2 0-.4-.1-.5-.4-.7-1.2-.9-2-.8-.2 0-.3.1-.4.2-.2.1-.1.2-.3.2-.1 0-.2.1-.2.2v.3c0 .1 0 0 0 0M54.1-2.8v.2c-.1.1-.1.1-.2.1-.1.1-.1.3-.1.4-.2.1 0 .2 0 .3v.2c0 .1 0 .3.1.4.1.2.2.4.4.5.2.1.4.6.6.6.2 0 .4-.1.5-.1.2 0 .4 0 .6-.1.2-.1.1-.3.3-.5.1-.1.3 0 .4-.1.2.1.3-.1.4-.3v-.2c0-.1.1-.2.1-.3 0-.1-.1-.1-.1-.2v-.3c0-.2 0-.4-.1-.5-.4-.7-1.2-.9-2-.8-.2 0-.3.1-.4.2-.2.1-.1.2-.3.2-.1 0-.2.1-.2.2v.1c0 .1 0 0 0 0M46.5-2.8v.2c-.1.1-.1.1-.2.1-.1.1-.1.3-.1.4-.2.1 0 .2 0 .3v.2c0 .1 0 .3.1.4.1.2.3.4.4.5.1.2.3.6.5.7.2 0 .4-.1.5-.1.2 0 .4 0 .6-.1.2-.1.1-.3.3-.5.1-.1.3 0 .4-.1.2-.1.3-.3.4-.5v-.2c0-.1.1-.2.1-.3 0-.1-.1-.1-.1-.2v-.3c0-.2 0-.4-.1-.5-.4-.7-1.2-.9-2-.8-.2 0-.3.1-.4.2-.2.1-.1.2-.3.2-.1 0-.2.1-.2.2.1.2.1.1.1.2M38.8-2.8v.2c-.1.1-.1.1-.2.1-.1.1-.1.3-.1.4-.2.1 0 .2 0 .3v.2c0 .1 0 .3.1.4 0 .2.2.4.4.5.2.1.4.6.6.6.2 0 .4-.1.5-.1.2 0 .4 0 .6-.1.2-.1.1-.3.3-.5.1-.1.3 0 .4-.1.2-.1.3-.3.4-.5v-.2c0-.1.1-.2.1-.3 0-.1-.1-.1-.1-.2v-.3c0-.2 0-.4-.1-.5-.4-.7-1.2-.9-2-.8-.2 0-.3.1-.4.2-.2.1-.1.2-.3.2-.1 0-.2.1-.2.2v.3c0 .1 0 0 0 0M31.1-2.8v.2c-.1.1-.1.1-.2.1-.1.1-.1.3-.1.4-.2.1 0 .2 0 .3v.2c0 .1 0 .3.1.4.1.2.2.4.4.5.2.1.4.6.6.6.2 0 .4-.1.5-.1.2 0 .4 0 .6-.1.2-.1.1-.3.3-.5.1-.1.3 0 .4-.1.2-.1.3-.3.4-.5v-.2c0-.1.1-.2.1-.3 0-.1-.1-.1-.1-.2v-.3c0-.2 0-.4-.1-.5-.4-.7-1.2-.9-2-.8-.2 0-.3.1-.4.2-.2.1-.1.2-.3.2-.1 0-.2.1-.2.2v.3c0 .1 0 0 0 0M23.5-2.8v.2c-.1.1-.1.1-.2.1-.1.1-.1.3-.1.4-.2.1 0 .2 0 .3v.2c0 .1 0 .3.1.4.1.2.3.4.4.5.1.2.3.6.6.7.2 0 .4-.1.5-.1.2 0 .4 0 .6-.1.2-.1.1-.3.3-.5.1-.1.3 0 .4-.1.2-.1.3-.3.4-.5v-.2c0-.1.1-.2.1-.3 0-.1-.1-.1-.1-.2v-.3c0-.2 0-.4-.1-.5-.4-.7-1.2-.9-2-.8-.2 0-.3.1-.4.2-.2.1-.1.2-.3.2-.1 0-.2.1-.2.2v.2c0 .1 0 0 0 0M15.8-2.8v.2c-.1.1-.1.1-.2.1-.1.1-.1.3-.1.4-.2.1 0 .2 0 .3v.2c0 .1 0 .3.1.4.1.2.2.4.4.5.2.1.4.6.6.6.2 0 .4-.1.5-.1.2 0 .4 0 .6-.1.2-.1.1-.3.3-.5.1-.1.3 0 .4-.1.2-.1.3-.3.4-.5v-.2c0-.1.1-.2.1-.3 0-.1-.1-.1-.1-.2v-.3c0-.2 0-.4-.1-.5-.4-.7-1.2-.9-2-.8-.2 0-.3.1-.4.2-.2.1-.1.2-.3.2-.1 0-.2.1-.2.2v.3c0 .1 0 0 0 0M8.2-2.8v.2c-.1.1-.2.1-.2.1-.1.1-.1.3-.1.4-.2.1 0 .2 0 .3v.2c0 .1 0 .3.1.4 0 .2.2.4.3.5.2.2.4.6.6.7.2 0 .4-.1.5-.1.2 0 .4 0 .6-.1.2-.1.1-.3.3-.5.1-.1.3 0 .4-.1.2-.1.3-.3.4-.5v-.2c0-.1.1-.2.1-.3 0-.1-.1-.1-.1-.2v-.3c0-.2 0-.4-.1-.5-.4-.7-1.2-.9-2-.8 0 .1-.2.2-.3.2-.2.1-.1.2-.3.3-.1 0-.2.1-.2.2v.1c-.1.1-.1 0 0 0M.5-2.8v.2c-.1.1-.1.1-.2.1 0 .1-.1.3-.1.4-.2.1 0 .2 0 .3v.2c0 .1 0 .3.1.4 0 .2.2.4.4.5.2.2.3.6.6.7.2 0 .4-.1.5-.1.2 0 .4 0 .6-.1.2-.1.1-.3.3-.5.1-.1.3 0 .4-.1.2 0 .3-.2.4-.4v-.2c0-.1.1-.2.1-.3 0-.1-.1-.1-.1-.2v-.3c0-.2 0-.4-.1-.5-.4-.7-1.2-.9-2-.8-.1 0-.2.1-.4.1-.1.1-.1.2-.3.3-.1 0-.2.1-.2.2v.1c0 .1 0 0 0 0" class="st2"/>
    </g>
  </pattern>
  <path d="M77.3 0H63.6c-2.4 0-3.3.9-4 2L49.4 17 39.7 2.3l-.3-.5s-.3-.4-.7-.4c-.5 0-.7.4-.7.4l-.3.5L28.2 17 17.7 2c-.7-1.1-1.6-2-4-2H0v12.3h7.6c1.6 0 2.3.1 3.5 1.4l.5.7L27 38.5s.5.8 1.3.8c.9 0 1.4-.8 1.4-.8l9-13.4L48 38.4s.5.8 1.3.8 1.3-.8 1.3-.8l15.2-24.1.5-.7c.8-1.2 1.8-1.4 3.4-1.3h7.6V0z" class="st3"/>
  <path d="M57.8 34.5l-8.3 13.2-10.7-15.6-8.2 12.1 17.3 27.2c.6 1 1.1 1.2 1.3 1.2.5 0 .8-.3 1.4-1.2l13.6-24.8c1.2-2.2 3.2-2.1 3.2-2.1h9.8V32.2H62c-2.8 0-4.2 2.3-4.2 2.3z" class="st3"/>
  <path d="M98.1 44.7c1.4 3.5 1.8 5 2.6 5 .6 0 .9-.3 1.3-1.3l5.7-14.2c.2-.4.4-.4.5-.4.2 0 .3.2.4.5l5.6 13.5c.7 1.6.9 1.9 1.4 1.9.8 0 1.2-1 1.5-1.7l13.1-31c1.7-4.1 3-2.7 3-3.8 0-.6-.3-.6-.6-.6-1.2 0-2.7.2-4.3.2-1.2 0-2.4-.2-3.6-.2-.4 0-.6.4-.6.8 0 1 3.3.7 3.3 2.9 0 .6-.1 1.1-.4 1.7l-9.3 23c-.5 1.1-.8 1.9-1.1 1.9-.3 0-.6-.4-1.1-1.6l-4.3-10.6c-.3-.8-.7-1.9-.7-2.5 0-.5 0-.9.5-1.9l3.6-8.4c2.3-5.4 3.5-3.4 3.5-4.9 0-.2-.2-.3-.4-.3-.9 0-1.5.2-3.7.2-1.1 0-2.2-.2-3.3-.2-.3 0-1 0-1 .5 0 1.1 3 .8 3 3 0 .5-.3 1.3-.5 1.8l-2.5 6c-.3.7-.6 1.3-.7 1.3-.1 0-.3-.4-.7-1.3l-2.7-6.8c-.3-.6-.4-.9-.4-1.5 0-1.7 2.1-1.5 2.1-2.4 0-.3-.1-.6-.3-.6-1.1 0-2.5.2-5 .2-.7 0-3.4-.2-5.2-.2-.5 0-.8 0-.8.6 0 1.7 3.6-.1 5 3.3l5.1 12.3c.3.7.5 1.3.5 1.6 0 .3-.2 1.1-.6 2.1l-3.8 9c-.2.6-.5.9-.7.9-.3 0-.7-.8-.9-1.3L91.1 17c-.2-.5-.3-1-.3-1.3 0-1.7 2.2-1.7 2.2-2.5 0-.4-.1-.6-.4-.6-1.2 0-2.5.2-3.7.2-1.5 0-3-.2-4.5-.2-.5 0-1.2.2-1.2.8 0 1 2.5.4 3.7 3.4l11.2 27.9zM128.3 34.3c0-2.8 2.3-6.5 5.4-6.5 2.8 0 5.7 2.6 5.7 5.4 0 .8-.3 1-1 1h-10.1v.1zm13.6 1.4c1.2 0 1.7.1 1.7-.9 0-2.1-2.8-8.1-9.1-8.1-6.4 0-10 5.5-10 12 0 3.4 2.7 10.5 10.4 10.5 4.6 0 9.1-3.7 9.1-4.9 0-.2 0-.4-.2-.4-1.1 0-2.8 2.7-7.2 2.7-3.1 0-8.3-2.5-8.3-11h13.6v.1zM152.3 39.2c2 1 4.7 1.8 4.7 4.5s-2 4.2-4.6 4.2c-5.5 0-5-6.8-6.1-6.8-.8 0-.6 1.6-.6 2.5 0 4.1 0 4.1 1.1 4.1 1.2 0 2.2 1.5 5.7 1.5 3.8 0 6.9-3.2 6.9-7 0-3.3-1.3-4.9-4.3-6.1-5.4-2.1-6.7-3.2-6.7-4.9 0-2.1 1.6-3.3 3.6-3.3 4.7 0 5.1 4.5 5.6 4.5.8 0 .6-.6.6-2 0-.4.1-2.1-.3-2.5-.6-.8-4.2-1.2-5-1.2-3.7 0-6.9 2-6.9 6.1.1 3.7 3.6 5 6.3 6.4zM163 43.3c0 5.3 3.4 5.9 5.7 5.9 3.6 0 6.4-1.7 6.4-2.5 0-.4-.2-.5-.4-.5-.9 0-1.6 1.2-4.4 1.2-2 0-3.5-1-3.6-3.1V29.5h6.7l.7-1.9c.2-.3-.4-.2-1.7-.2h-5.6c0-3.7.1-4.8-.7-4.8-.4 0-.8-.3-1 1.3-.4 3.4-3.2 4.7-3.2 5.1.3-.3-.9.5 1.2.4v13.9h-.1zM188.6 46.5c.5 1.1 1.1 3.2 1.9 3.2.8 0 1.1-1.7 1.7-3L205 16.5c1.4-3.4 2.9-2.2 2.9-3.3 0-.5-.3-.7-.9-.7-.7 0-1.5.2-3.9.2-1.1 0-2.3-.2-3.4-.2-.5 0-.8.2-.8.7 0 1.2 3.3.2 3.3 2.6.2 1.1-.4 2.7-.7 3.5l-8.9 22c-.3.6-.4 1.4-.9 1.4-.6 0-.9-1.2-2-3.9l-9-21.1c-.2-.5-.5-1.3-.5-2 0-1.8 2.2-1.9 2.1-2.6 0-.3-.4-.5-.7-.5-.7 0-2.7.2-4 .2-1.5 0-3.1-.2-4.7-.2-.5 0-.7.3-.7.7 0 1.1 2.7.2 3.9 3.2l12.5 30zM247.4 19.3c-.6 0-2.2 2.2-2.2 2.7 0 .6 1.5 2.7 2.2 2.7.7 0 2.2-2.1 2.2-2.7 0-.6-1.5-2.7-2.2-2.7zM282.5 19c-.6 0-2.2 2.2-2.2 2.7 0 .6 1.5 2.7 2.2 2.7.7 0 2.2-2 2.2-2.7 0-.6-1.5-2.7-2.2-2.7zM301.4 36.4c-12 2-12.9 5.2-12.9 7.9 0 3.6 2.2 4.9 5.5 4.9 2.9 0 5.7-1.1 7.8-3 .7 1.7 2 2.6 4 2.6.7 0 3-.2 3-1.3 0-.4-.4-.4-.7-.4-.2 0-.7.1-.9.1-2.7 0-2.2-3-2.2-4.8V32c0-4.4-4.9-5.3-8.1-5.3-5.7-.2-8.6 3.4-8.6 5.8 0 .9 1.5 1.7 2.4 1.7 1 0 1.1-.4 1.1-1s-.3-1.3-.3-2.1c0-2.8 2-3.1 4.5-3.1 3.2 0 5.3 1.8 5.3 4.5v3.9h.1zm0 7.2c0 2.7-3.5 4.1-5.3 4.1-2.7 0-4.2-1.1-4.2-4 0-4.5 6.3-5.3 9.5-6v5.9zM211.4 47.7c-.4 0-3.8 0-3.8-2.2V27.1c0-.5-.3-.8-.6-.8-1.2 0-2.2 1.6-5.5 2.6-.3 0-.5.3-.5.6 0 1.1 2.8-.3 2.8 2.8v12.1c0 4.7-2.3 2.7-2.3 4 .1.5.4.6.8.6.6 0 1.9-.2 3.5-.2 2.1 0 3.7.2 4.8.2H211.5c.4 0 1.3-.2 4.7-.2 2.9 0 4.1.2 4.8.2.6 0 .8-.1.8-.6 0-1.6-4.6.8-4.6-3.9V33.1c0-.7 4.1-7.8 10.3-7.6 1.8.1 1.5.2 2.8-1.7.5-.8-1.9-.8-2.9-.7-6.9.5-8.4 5.2-10.1 7.7v-3.5c0-.5-.3-.8-.6-.8-1.2 0-2.2 1.6-6.2 2.6-.3 0-.7.3-.7.6 0 1.1 3.7-.3 3.7 2.8v13.2c.1 1.4-1.6 2.1-2.1 2zM278.4 47.7c-.5 0-3.8.2-3.8-2.9v-8.5c0-3.9-1.5-9.6-8.4-9.6-5 0-7.5 4.4-7.4 3.8v-3.4c0-.5-.3-.8-.6-.8-1.2 0-2.2 1.6-6.5 2.6-.3 0-.5.3-.5.6 0 1.1 3.8-.3 3.8 2.8V45c0 2.4-1.7 2.7-2.5 2.7-.3-.1-3.5-.1-3.5-2.1V27.1c0-.5-.3-.8-.6-.8-1.2 0-2.2 1.6-5.5 2.6-.3 0-.9 1.8-.6 1.7 1.7-.2 2.9-1.4 2.9 1.6v12.1c0 4.7-2.3 2.7-2.3 4 .1.5.4.6.8.6.6 0 1.9-.2 3.5-.2 2.1 0 3.7.2 4.8.2h.8c.6 0 1.6-.2 4.4-.2 3 0 4 .2 4.9.2.8 0 1.1-.1 1.1-.7 0-1.4-4.5.1-4.5-3.4V32.9c-.1-.8 1.7-4 6-4 4.1 0 6 3.8 6 6.4v9.6c0 3.3-2.2 2.3-2.2 3.3 0 .5.3.6.9.6.7 0 1.7-.2 3.7-.2 2.5 0 3.8.2 4.5.2h1.2c.6 0 1.9-.2 3.5-.2 2.1 0 3.7.2 4.8.2.7 0 1-.2 1-.6 0-1.3-4-.2-4-2.8V27.1c0-.5-.3-.8-.6-.8-1.2 0-2.2 1.6-5.5 2.6-.3 0-.5.3-.5.6 0 1.1 2.8-.3 2.8 2.8v12.1c.1 3.4-1.2 3.2-1.9 3.3z" class="st2"/>
  <path d="M232.3 41.3c-3.6 0-4.9-3.5-4.9-6.6 0-2.7.8-6 4.7-6 3.6 0 4.9 3.6 4.9 6.8 0 1.7-.4 5.8-4.7 5.8zm12.9-12.4c-.2-.4-.7-.4-.9-.4h-.1c-1.6.6-3 .8-4.1.8-.6 0-1.2-.1-1.5-.3-.4-.2-.8-.4-1.1-.6-1.2-.7-2.2-1.4-5.5-1.4-4.9 0-8.6 3.6-8.6 8.4 0 2.6 1.2 5 3.1 6.4-.8.7-2.5 2.4-2.5 4.2 0 2.2.8 3.8 2.1 4.4 1.1.6 3.4 1 6.8 1.1 5.5.2 6.7.4 6.7 2.1 0 .8-.4 4.7-8.2 4.7-2 0-6.5-.4-6.5-3.8 0-1.2.1-1.3.7-2.1.2-.2.2-.5.1-.8-.1-.3-.5-.5-.9-.5h-.3c-1 .3-2.5.8-2.5 3.3 0 4.6 5.9 5.8 9 5.8 8.6 0 11.6-4.2 11.6-7.8 0-4.9-5.3-4.9-8.2-4.9h-2.3c-3.5 0-4.9-.6-5.4-1.1-.3-.4-.3-.7-.3-1 0-1 1.1-2.5 2.1-2.5.2 0 .3 0 .6.1.5.1 1.2.3 3 .3 5.1 0 8.9-3.4 8.9-8.2 0-.8-.1-1.7-.4-2.9l-.3-.6c-.1-.1-.1-.3-.2-.4 1.7-.2 4.7-.9 4.8-1.5.3-.1.5-.5.3-.8zM420.5 47.7c-.3.1-.6.8 0 1.1.2.1-.1 0 .1 0h.3c.4 0 1.3-.2 4.7-.2 2.9 0 4.1.2 4.8.2.6 0 .8-.1.8-.6 0-1.6-4.6.8-4.6-3.9V32.9c0-.7 4.1-7.8 10.3-7.6 1.8.1 1.5.2 2.8-1.7.5-.8-1.9-.8-2.9-.7-6.9.6-8.4 5.2-10.1 7.7v-3.5c0-.5-.3-.8-.6-.8-1.2 0-2.2 1.6-6.1 2.6-.3.1-.7.3-.7.6 0 1.1 3.7-.3 3.7 2.8v13.2c0 1.5-2 2-2.5 2.2zM487.4 30.7c1-3.1 2.8-1.8 2.8-3 0-.4-.4-.6-1-.6-.5 0-1.4.2-2.6.2-1.4 0-2.3-.2-2.9-.2-.9 0-1.5 0-1.5.6 0 1.1 3.3.4 3.3 3.1 0 .4 0 .8-.6 2.7-3.5 11.1-3.9 11.6-3.9 11.6l-5.5-13.9.1-.1c.1.5-.4-.3-.4-1.1 0-2 2.9-1 2.9-2.1 0-.6-.3-.7-1.1-.7s-2 .2-3.8.2c-1.4 0-2.5-.1-3.6-.1-.7 0-.8.1-1 .5-1.3 2.6 1.9.8 2.4 1.9l6.7 16.5c.5 1.1 1 2.2 1 3.4 0 4-4.8 12.8-12.6 11.8-.3 0-.9-.2-1.1.1.2.1-.7-.2.9 2.1.6.5 1.7.7 3.5.3 5.3-1.2 8.8-6.5 8.9-6.6 2.7-4 9.1-26.6 9.1-26.6zM316.3 16.7c0-3.7 3.4-2.3 3.4-3.7 0-.6-1.4-.5-1.6-.5-1.6 0-3.2.2-4.9.2-1.4 0-2.7-.2-4-.2-.3 0-1.1.2-1.1.5 0 1.6 4.2.4 4.2 3.4v17.3c0 7.9 2.6 15.4 16 15.4 14.9 0 14.3-12.7 14.3-15.2V18.1c0-4.7 3-3.6 3-5 0-.3-.4-.6-.7-.6-.9 0-1.8.2-2.8.2-2 0-4-.2-6-.2-.2 0-.5.3-.5.5 0 1.9 4.8-.2 4.8 5v16.6c0 6-2.2 12.4-11.8 12.4-6.9 0-12.2-3.7-12.2-11.9V16.7h-.1zM403.9 34.3c0-2.8 2.3-6.5 5.4-6.5 2.8 0 5.7 2.6 5.7 5.4 0 .8-.3 1-1 1h-10.1v.1zm13.6 1.3c1.2 0 1.7 0 1.7-.9 0-2.1-2.8-8.1-9.1-8.1-6.4 0-10 5.5-10 12 0 3.4 2.7 10.5 10.4 10.5 4.6 0 9.1-3.7 9.1-4.9 0-.2 0-.4-.2-.4-1.1 0-2.8 2.7-7.2 2.7-3.1 0-8.2-2.5-8.2-11h13.5v.1z" class="st2"/>
  <path d="M440.2 39.1c2.1 1 4.7 1.8 4.7 4.5s-2 4.2-4.6 4.2c-5.5 0-5-6.8-6.1-6.8-.8 0-.6 1.6-.6 2.5 0 4 0 4.1 1.1 4.1 1.2 0 2.2 1.5 5.7 1.5 3.8 0 6.9-3.2 6.9-7 0-3.3-1.3-4.9-4.3-6.1-5.4-2.2-6.7-3.2-6.7-4.9 0-2.1 1.6-3.3 3.6-3.3 4.7 0 5.1 4.5 5.6 4.5.8 0 .6-.6.6-2 0-.4.1-2.1-.3-2.5-.6-.8-4.2-1.2-5-1.2-3.7 0-6.9 2-6.9 6.1.1 3.7 3.5 5 6.3 6.4zM460.5 43.2c0 5.3 3.4 5.9 5.7 5.9 3.6 0 6.4-1.7 6.4-2.5 0-.4-.2-.5-.4-.5-.9 0-1.6 1.2-4.4 1.2-2.1 0-3.5-1-3.6-3.1V29.4h6.7l.7-1.9c.2-.3-.4-.2-1.7-.2h-5.6c0-3.7 0-4.8-.7-4.8-.4 0-.8-.3-1 1.3-.4 3.4-3.2 4.7-3.2 5.1.3-.3-.9.5 1.2.4v13.9h-.1zM387.1 32c-.6-1.5-.9-2.3-.9-2.5 0-1.5 2.9-.9 2.9-1.9 0-.6-.5-.6-1.2-.6-.6 0-1.3.2-3.1.2-3.3 0-3.3-.2-4.3-.2s-1.1.3-1.1.6c0 .9 1.8.2 2.8 2.4l7.6 17.4c.1.4.4 1.2 1 1.2.8 0 .8-.6 1.7-2.7l7.7-16.4c.7-1.5 2.5-1.2 2.5-1.9s-.9-.8-1.4-.8c-.9 0-1.8.2-2.6.2-1.1 0-2.1-.2-3.1-.2-.7 0-1.2 0-1.2.7 0 1.3 3.1-.1 3.1 2.7 0 2.3-1.3 4.4-2.2 6.4l-3.4 7.3-4.8-11.9zM371.8 48.8h.5c.6 0 1.9-.2 3.5-.2 2.1 0 3.7.2 4.8.2.7 0 1-.2 1-.6 0-1.3-4-.2-4-2.8V27c0-.5-.3-.8-.6-.8-1.2 0-2.2 1.6-5.5 2.6-.3.1-.5.3-.5.6 0 1.1 2.8-.3 2.8 2.8v12.1c0 3.5-1.3 3.3-1.9 3.3-.2 0-3.9.2-3.9-2.9v-8.5c0-3.9-1.5-9.6-8.4-9.6-5 0-7.5 4.4-7.4 3.8V27c0-.5-.3-.8-.6-.8-1.2 0-2.2 1.6-6.5 2.6-.3.1-.5.3-.5.6 0 1.1 3.8-.3 3.8 2.8v12.7c0 3.3-3 2.3-3 3.3 0 .5.3.6.9.6.6 0 1.6-.2 4.4-.2 3 0 4 .2 4.9.2.8 0 1.1-.1 1.1-.7 0-1.4-4.5.1-4.5-3.4V32.9c-.1-.8 1.7-4 6-4 4.2 0 6 3.8 6 6.4v9.6c0 3.3-2.2 2.3-2.2 3.3 0 .5.3.6.9.6.7 0 1.7-.2 3.7-.2 2.5 0 3.8.2 4.5.2h.7zM376 19.3c-.6 0-2.2 2.2-2.2 2.7 0 .6 1.5 2.7 2.2 2.7.7 0 2.2-2 2.2-2.7-.1-.6-1.6-2.7-2.2-2.7zM451.3 44c0 4.7-2.3 2.7-2.3 4 0 .5.4.6.8.6.6 0 1.9-.2 3.5-.2 2.1 0 3.7.2 4.8.2.7 0 1-.2 1-.6 0-1.3-4.1-.2-4.1-2.8V26.8c0-.5-.3-.8-.6-.8-1.2 0-2.2 1.6-5.5 2.6-.3.1-.5.3-.5.6 0 1.1 2.8-.3 2.8 2.8v12h.1zM453.3 19.3c-.6 0-2.2 2.2-2.2 2.7 0 .6 1.5 2.7 2.2 2.7.7 0 2.2-2 2.2-2.7 0-.6-1.5-2.7-2.2-2.7zM487.5 46.5v-1.2h.8c.4 0 .9.1.9.6 0 .6-.5.7-1 .7h-.7v-.1zm0 .5h.7l1.1 1.8h.7l-1.1-1.8c.6-.1 1-.4 1-1.1 0-.8-.5-1.2-1.4-1.2H487v4h.6V47h-.1zm-2.1-.3c0-1.7 1.2-2.9 2.9-2.9 1.6 0 2.8 1.2 2.8 2.9s-1.3 2.9-2.8 2.9c-1.7.1-2.9-1.2-2.9-2.9zm2.8 3.5c1.9 0 3.5-1.5 3.5-3.5s-1.6-3.5-3.5-3.5-3.6 1.5-3.6 3.5c.1 2.1 1.7 3.5 3.6 3.5z" class="st2"/>
  <g>
    <path d="M102.7 77.9c-.6-3-3.2-3.6-4.8-3.6-3.1 0-5.6 2.3-5.6 6.8 0 4.1 1.4 7.2 5.7 7.2 1.5 0 4.1-.7 4.9-4.7h2.3c-1 6.5-6.2 6.8-7.5 6.8-3.9 0-7.8-2.5-7.8-9.2 0-5.3 3-9 8-9 4.4 0 6.7 2.8 7.1 5.6h-2.3zM120.8 89.9H108V72.7h12.6v2.1h-10.2V80h9.4v2.1h-9.4v5.8h10.4v2zM135.1 72.7h2.3v17.2h-2.6L126 76v13.9h-2.3V72.7h2.8l8.6 13.9V72.7zM139.4 72.7h14v2.1h-5.8V90h-2.3V74.7h-5.8v-2zM168.4 89.9h-12.7V72.7h12.6v2.1H158V80h9.4v2.1H158v5.8h10.4v2zM173.9 89.9h-2.3V72.7h8c2.8 0 5.7 1 5.7 4.6 0 2.5-1.3 3.5-2.4 4.1 1 .4 2 .8 2.1 3.2l.1 3.1c0 1 .1 1.3.9 1.7v.4h-2.9c-.3-1.1-.4-3.7-.4-4.3 0-1.4-.3-3.1-3.1-3.1H174v7.5zm0-9.4h5.4c1.7 0 3.5-.4 3.5-3 0-2.7-1.9-2.9-3.1-2.9h-5.8v5.9zM197.7 89.9h-2.3V72.7h11.9v2.1h-9.6V80h8.4v2.1h-8.4v7.8zM217.1 90.4c-6.4 0-8.4-5.4-8.4-9.1s2-9.1 8.4-9.1 8.4 5.4 8.4 9.1-1.9 9.1-8.4 9.1zm0-16.1c-3.7 0-6 3-6 7s2.3 7 6 7 6-3 6-7-2.2-7-6-7zM230.8 89.9h-2.3V72.7h8c2.8 0 5.7 1 5.7 4.6 0 2.5-1.3 3.5-2.4 4.1 1 .4 2 .8 2.1 3.2l.1 3.1c0 1 .1 1.3.9 1.7v.4H240c-.3-1.1-.4-3.7-.4-4.3 0-1.4-.3-3.1-3.1-3.1h-5.6v7.5zm0-9.4h5.4c1.7 0 3.5-.4 3.5-3 0-2.7-1.9-2.9-3.1-2.9h-5.8v5.9zM254.7 84.9l-1.8 5h-2.4l6.5-17.2h2.6l6.2 17.2h-2.5l-1.7-5h-6.9zm6-2.1l-2.5-7.6-2.8 7.6h5.3zM270.2 87.8h8.7v2.1h-11.1V72.7h2.3v15.1zM279.6 72.7h14v2.1h-5.8V90h-2.3V74.7h-5.8v-2zM308.6 89.9h-12.7V72.7h12.6v2.1h-10.2V80h9.4v2.1h-9.4v5.8h10.4v2zM314.1 89.9h-2.3V72.7h8c2.8 0 5.7 1 5.7 4.6 0 2.5-1.3 3.5-2.4 4.1 1 .4 2 .8 2.1 3.2l.1 3.1c0 1 .1 1.3.9 1.7v.4h-2.9c-.3-1.1-.4-3.7-.4-4.3 0-1.4-.3-3.1-3.1-3.1h-5.6v7.5zm0-9.4h5.4c1.7 0 3.5-.4 3.5-3 0-2.7-1.9-2.9-3.1-2.9h-5.8v5.9zM340.1 72.7h2.3v17.2h-2.6L331 76v13.9h-2.3V72.7h2.8l8.6 13.9V72.7zM348.6 84.9l-1.8 5h-2.4l6.5-17.2h2.6l6.2 17.2h-2.5l-1.7-5h-6.9zm6.1-2.1l-2.5-7.6-2.8 7.6h5.3zM360.3 72.7h14v2.1h-5.8V90h-2.3V74.7h-5.8v-2zM379 89.9h-2.3V72.7h2.3v17.2zM394 72.7h2.6l-6.3 17.2h-2.5l-6.3-17.2h2.6l4.9 14.7 5-14.7zM411.7 89.9H399V72.7h12.6v2.1h-10.2V80h9.4v2.1h-9.4v5.8h10.4v2zM93.2 116.3h-2.3V99h11.9v2.1h-9.6v5.3h8.4v2.1h-8.4v7.8zM118.8 99v11.2c0 3.5-2.2 6.5-6.9 6.5-4.6 0-6.6-3-6.6-6.2V99h2.3v10.8c0 3.7 2.3 4.8 4.4 4.8 2.1 0 4.5-1 4.5-4.7V99h2.3zM135.3 116.3h-12.7V99h12.6v2.1H125v5.3h9.4v2.1H125v5.8h10.4v2zM140.6 114.2h8.7v2.1h-11.1V99h2.3v15.2zM161.9 104.1c-.1-2.7-2.3-3.5-4.3-3.5-1.5 0-3.9.4-3.9 3 0 1.5 1 1.9 2 2.2l4.9 1.1c2.2.5 3.9 1.9 3.9 4.6 0 4.1-3.8 5.2-6.7 5.2-3.2 0-4.4-1-5.2-1.7-1.5-1.3-1.8-2.8-1.8-4.4h2.2c0 3.1 2.5 4 4.8 4 1.7 0 4.5-.4 4.5-2.9 0-1.8-.8-2.4-3.7-3l-3.5-.8c-1.1-.3-3.7-1.1-3.7-4.1 0-2.7 1.8-5.3 5.9-5.3 6 0 6.6 3.6 6.7 5.5h-2.1zM186.9 116.3h-12.7V99h12.6v2.1h-10.2v5.3h9.4v2.1h-9.4v5.8H187v2zM201.2 99h2.3v17.2h-2.6l-8.8-13.9v13.9h-2.3V99h2.8l8.6 13.9V99zM214.5 107.1h7.6v9.2h-1.5l-.6-2.3c-1.2 1.6-3.3 2.7-5.7 2.7-3 0-4.4-1.1-5.3-1.9-2.6-2.5-2.7-5.4-2.7-7.3 0-4.2 2.5-8.9 8.2-8.9 3.2 0 6.8 1.8 7.3 5.7h-2.3c-.7-3-3.3-3.6-5.2-3.6-3.1 0-5.6 2.5-5.6 7 0 3.5 1.2 7.1 5.7 7.1.9 0 2.3-.1 3.5-1.1 1.5-1.2 1.9-2.7 1.9-4.6h-5.4v-2zM228.2 116.3h-2.3V99h2.3v17.3zM243.5 99h2.3v17.2h-2.6l-8.8-13.9v13.9h-2.3V99h2.8l8.6 13.9V99zM262.3 116.3h-12.7V99h12.6v2.1H252v5.3h9.4v2.1H252v5.8h10.4v2zM275.6 104.1c-.1-2.7-2.3-3.5-4.3-3.5-1.5 0-3.9.4-3.9 3 0 1.5 1 1.9 2 2.2l4.9 1.1c2.2.5 3.9 1.9 3.9 4.6 0 4.1-3.8 5.2-6.7 5.2-3.2 0-4.4-1-5.2-1.7-1.5-1.3-1.8-2.8-1.8-4.4h2.2c0 3.1 2.5 4 4.8 4 1.7 0 4.5-.4 4.5-2.9 0-1.8-.8-2.4-3.7-3l-3.5-.8c-1.1-.3-3.7-1.1-3.7-4.1 0-2.7 1.8-5.3 5.9-5.3 6 0 6.6 3.6 6.7 5.5h-2.1zM290.3 111.3l-1.8 5h-2.4l6.5-17.2h2.6l6.2 17.2H299l-1.7-5h-7zm6.1-2.1l-2.5-7.6-2.8 7.6h5.3zM314.9 99h2.3v17.2h-2.6l-8.8-13.9v13.9h-2.3V99h2.8l8.6 13.9V99zM320.9 99h7c4.5 0 7.2 3.4 7.2 8.4 0 3.9-1.7 8.9-7.3 8.9h-6.9V99zm2.3 15.3h4.5c3 0 5-2.4 5-6.7s-2-6.5-5.2-6.5h-4.3v13.2zM357.5 116.3h-12.7V99h12.6v2.1h-10.2v5.3h9.4v2.1h-9.4v5.8h10.4v2zM374.6 116.3v-10.2-4.3l-4.8 14.5h-2.3l-4.8-14.4v14.5h-2.3V99h3.3l4.9 14.6 4.9-14.6h3.3v17.2h-2.2zM382.9 116.3h-2.3V99h2.3v17.3zM397.2 104.1c-.1-2.7-2.3-3.5-4.3-3.5-1.5 0-3.9.4-3.9 3 0 1.5 1 1.9 2 2.2l4.9 1.1c2.2.5 3.9 1.9 3.9 4.6 0 4.1-3.8 5.2-6.7 5.2-3.2 0-4.4-1-5.2-1.7-1.5-1.3-1.8-2.8-1.8-4.4h2.2c0 3.1 2.5 4 4.8 4 1.7 0 4.5-.4 4.5-2.9 0-1.8-.8-2.4-3.7-3l-3.5-.8c-1.1-.3-3.7-1.1-3.7-4.1 0-2.7 1.8-5.3 5.9-5.3 6 0 6.6 3.6 6.7 5.5h-2.1zM413.1 104.1c-.1-2.7-2.3-3.5-4.3-3.5-1.5 0-3.9.4-3.9 3 0 1.5 1 1.9 2 2.2l4.9 1.1c2.2.5 3.9 1.9 3.9 4.6 0 4.1-3.8 5.2-6.7 5.2-3.2 0-4.4-1-5.2-1.7-1.5-1.3-1.8-2.8-1.8-4.4h2.2c0 3.1 2.5 4 4.8 4 1.7 0 4.5-.4 4.5-2.9 0-1.8-.8-2.4-3.7-3l-3.5-.8c-1.1-.3-3.7-1.1-3.7-4.1 0-2.7 1.8-5.3 5.9-5.3 6 0 6.6 3.6 6.7 5.5h-2.1zM421.3 116.3H419V99h2.3v17.3zM432.6 116.7c-6.4 0-8.4-5.4-8.4-9.1 0-3.7 2-9.1 8.4-9.1s8.4 5.4 8.4 9.1c0 3.8-1.9 9.1-8.4 9.1zm0-16c-3.7 0-6 3-6 7 0 4.1 2.3 7 6 7s6-3 6-7c0-4.1-2.2-7-6-7zM455.1 99h2.3v17.2h-2.6l-8.8-13.9v13.9h-2.3V99h2.8l8.6 13.9V99zM471.3 104.1c-.1-2.7-2.3-3.5-4.3-3.5-1.5 0-3.9.4-3.9 3 0 1.5 1 1.9 2 2.2l4.9 1.1c2.2.5 3.9 1.9 3.9 4.6 0 4.1-3.8 5.2-6.7 5.2-3.2 0-4.4-1-5.2-1.7-1.5-1.3-1.8-2.8-1.8-4.4h2.2c0 3.1 2.5 4 4.8 4 1.7 0 4.5-.4 4.5-2.9 0-1.8-.8-2.4-3.7-3l-3.5-.8c-1.1-.3-3.7-1.1-3.7-4.1 0-2.7 1.8-5.3 5.9-5.3 6 0 6.6 3.6 6.7 5.5h-2.1z" class="st2"/>
  </g>
</svg>