<svg version="1.1" id="Layer_1" xmlns="http://www.w3.org/2000/svg" xmlns:xlink="http://www.w3.org/1999/xlink" x="0px" y="0px"
	 width="372.3px" height="131px" viewBox="0 0 372.3 131" enable-background="new 0 0 372.3 131" xml:space="preserve">
<g>
	<g>
		<g>
			<g>
				<path fill-rule="evenodd" clip-rule="evenodd" fill="#0473A7" d="M295.1,19.9l0,50.2h-22.4l0-50.1l-28,0l0-19.8l69.7-0.1
					L305.8,20L295.1,19.9z M218,24.9c0,8.7-13.3,7.3-13.3,7.3V19.1C204.8,19.1,218,16.5,218,24.9 M93.2,70H66.5L46.3,25.6L35.5,49.5
					h16.6L61,70H0L34.5,0l23.9,0L93.2,70z M119.4,33.1V0.2l29.1,0c14.3,0.8,29.2,9.3,33.4,23.7l0-23.7l39.5,0
					c7.5,0.6,15.5,4.9,18.1,12.1c2.2,7,1.9,13.9-2.5,19.2c-1.4,1.5-5.7,4.7-7.7,5.5l15.5,21.6l0.1-34h22V70h-42.3l-19.8-34.7
					L204.6,70h-22.8l0-25.6C179,55.3,168,66.1,157.4,68.5c-6.5,1.5-12.1,1.5-12.1,1.5V49.1c6.1-0.4,12.6-3.3,15-9.2
					c1.8-3.5,0.9-9-1.1-12.2c-4-6.1-10.8-8.5-18.1-7.7L141,70l-22.6,0l-20-33.8V70h-0.8L77,27.9l0-27.8h21.6L119.4,33.1z
					 M333.4,49.1h29.1l9.7,20.9h-74.6l23-50.1h-9.8l8.5-19.9l33.6,0L333.4,49.1z"/>
			</g>
		</g>
	</g>
	<path fill="#6E6F71" d="M369.5,105c-0.3-9.1-9.5-11.2-17.2-11.2c-7.1,0-16.7,2.3-16.7,11.2c0,6.1,4.2,9.3,14.4,11.1
		c6.3,1.1,7.4,1.7,7.4,3.7c0,2-2.8,2.7-4.6,2.7c-1.6,0-2.9-0.4-3.6-1c-1-0.9-1.6-1.9-1.6-3.1h-12.9c0.2,9.1,9.3,12.5,17.6,12.5
		c8.6,0,18-2.7,18-12.5c0-5.8-4-8.4-8.4-9.9c-4.5-1.5-9.6-1.8-11.9-2.7c-0.7-0.3-1.6-0.8-1.6-1.8c0-2.3,2.2-2.7,4.1-2.7
		c1.1,0,2.2,0.3,3,1c0.9,0.6,1.5,1.5,1.6,2.7H369.5z M315.6,130.1h13.5V81.5h-13.5V130.1z M308.2,107.7c0-6.8,0.1-13.8-16.8-13.8
		c-8.4,0-17.8,1.6-18.2,11.6h12.5c0.1-1.5,0.9-3.6,5-3.6c2.2,0,4.4,0.9,4.4,3.3c0,2.2-1.8,2.8-3.7,3.1c-6.9,1.3-20,0.9-20,12.1
		c0,7.4,5.7,10.7,12.5,10.7c4.4,0,8.5-1,11.4-4.2h0.1c-0.1,1,0.1,2.4,0.5,3.3h13.8c-1.5-2.2-1.6-5.2-1.6-7.9V107.7z M295.2,117.5
		c-0.2,3.7-2.6,5.5-5.7,5.5c-2.5,0-4.2-1.6-4.2-3.3c0-2.4,1.6-3.1,4.6-3.8c1.8-0.4,3.7-0.9,5.3-1.7V117.5z M262.2,84h-13.5v10.8h-6
		v8.3h6v16.9c0,9.7,6.3,10.6,12.1,10.6c2.9,0,5.9-0.4,8.7-0.4v-10.2c-1,0.1-2,0.2-3.1,0.2c-3.4,0-4.2-1.4-4.2-4.7v-12.3h7.2v-8.3
		h-7.2V84z M240.3,115.5c0-13.8-6.1-21.6-20.1-21.6c-11.2,0-18.7,8.4-18.7,18.7c0,11.8,8.5,18.5,19.8,18.5c8,0,15.5-3.5,18.2-11.2
		h-12.6c-1.1,1.7-3.5,2.5-5.7,2.5c-4.2,0-6.5-2.9-6.9-6.9H240.3z M214.5,108.4c0.6-3.8,2.9-5.9,6.9-5.9c3.5,0,5.9,2.7,5.9,5.9H214.5
		z M138.8,130.1H153V98.9h0.1l8.5,31.2h11.2l8.4-31.2h0.1v31.2h14.2V81.5h-21.3l-6.9,28.6h-0.1l-6.9-28.6h-21.3V130.1z"/>
</g>
</svg>
