<svg xmlns="http://www.w3.org/2000/svg" viewBox="0 0 331.3 124.3">
	<path fill="#231F20" d="M2.1,20.5l11,0v12.7h12.1V20.5h11.1v36.3H25.2V42.1H13.1v14.7l-11,0V20.5z"/>
	<path fill="#231F20" d="M43.6,20.5l29.6,0v7.8l-18.5,0v5.8l17.2,0v7.4l-17.2,0v7.2l19,0v8.2l-30.1,0V20.5z"/>
	<path fill="#231F20" d="M79.8,56.8V20.5h18.4c3.4,0,6,0.3,7.8,0.9c1.8,0.6,3.3,1.7,4.4,3.3c1.1,1.6,1.7,3.6,1.7,5.9
		c0,2-0.4,3.7-1.3,5.2c-0.8,1.5-2,2.6-3.5,3.5c-0.9,0.6-2.2,1.1-3.9,1.4c1.3,0.4,2.3,0.9,2.9,1.3c0.4,0.3,1,0.9,1.8,1.9
		c0.8,1,1.3,1.7,1.5,2.3l5.4,10.5h-12.5l-5.9-11.1c-0.7-1.4-1.4-2.4-2-2.8c-0.8-0.6-1.7-0.8-2.7-0.8h-1v14.7H79.8z M90.9,35.2h4.6
		c0.5,0,1.5-0.2,2.9-0.5c0.7-0.1,1.3-0.5,1.8-1.1c0.5-0.6,0.7-1.3,0.7-2.1c0-1.2-0.4-2.1-1.1-2.7c-0.7-0.6-2.1-0.9-4.1-0.9h-4.8
		V35.2z"/>
	<path fill="#231F20" d="M118.6,56.8V20.5l18.4,0c3.4,0,6,0.3,7.8,0.9c1.8,0.6,3.3,1.7,4.4,3.3c1.1,1.6,1.7,3.6,1.7,5.9
		c0,2-0.4,3.7-1.3,5.2c-0.8,1.5-2,2.6-3.5,3.5c-0.9,0.6-2.2,1.1-3.9,1.4c1.3,0.4,2.3,0.9,2.9,1.3c0.4,0.3,1,0.9,1.8,1.9
		c0.8,1,1.3,1.7,1.5,2.3l5.4,10.5h-12.5l-5.9-11.1c-0.7-1.4-1.4-2.4-2-2.8c-0.8-0.6-1.7-0.8-2.7-0.8h-1v14.7H118.6z M129.7,35.2h4.6
		c0.5,0,1.5-0.2,2.9-0.5c0.7-0.1,1.3-0.5,1.8-1.1c0.5-0.6,0.7-1.3,0.7-2.1c0-1.2-0.4-2.1-1.1-2.7c-0.7-0.6-2.1-0.9-4.1-0.9h-4.8
		V35.2z"/>
	<path fill="#231F20" d="M170.6,20.5h11.6l8,26.1l7.9-26.1h11.2l-13.3,36.3l-12,0L170.6,20.5z"/>
	<path fill="#231F20" d="M208.2,38.7c0-5.9,1.6-10.5,4.9-13.8c3.2-3.3,7.8-4.9,13.6-4.9c5.9,0,10.5,1.6,13.7,4.9
		c3.2,3.2,4.8,7.8,4.8,13.6c0,4.2-0.7,7.7-2.1,10.4c-1.4,2.7-3.4,4.8-6.1,6.3c-2.7,1.5-6,2.2-9.9,2.2c-4,0-7.4-0.6-10-1.9
		c-2.6-1.3-4.8-3.4-6.4-6.2C209,46.5,208.2,42.9,208.2,38.7z M219.2,38.8c0,3.7,0.7,6.3,2,7.9c1.3,1.6,3.2,2.4,5.5,2.4
		c2.4,0,4.2-0.8,5.5-2.4c1.3-1.6,1.9-4.4,1.9-8.5c0-3.4-0.7-5.9-2-7.5c-1.4-1.6-3.2-2.4-5.5-2.4c-2.2,0-4,0.8-5.4,2.4
		C219.9,32.4,219.2,35.1,219.2,38.8z"/>
	<path fill="#231F20" d="M248.1,44.8l10.5-0.7c0.2,1.7,0.7,3.1,1.4,4c1.1,1.5,2.8,2.2,4.9,2.2c1.6,0,2.8-0.4,3.7-1.1
		c0.9-0.7,1.3-1.6,1.3-2.6c0-0.9-0.4-1.8-1.2-2.5c-0.8-0.7-2.7-1.4-5.7-2.1c-4.8-1.1-8.3-2.6-10.4-4.4c-2.1-1.8-3.1-4.2-3.1-7
		c0-1.9,0.5-3.6,1.6-5.3c1.1-1.7,2.7-3,4.8-3.9c2.1-0.9,5.1-1.4,8.8-1.4c4.6,0,8.1,0.9,10.5,2.6c2.4,1.7,3.8,4.5,4.3,8.2L269,31.3
		c-0.3-1.6-0.9-2.8-1.7-3.5c-0.9-0.7-2.1-1.1-3.7-1.1c-1.3,0-2.3,0.3-2.9,0.8c-0.7,0.6-1,1.2-1,2c0,0.6,0.3,1.1,0.8,1.6
		c0.5,0.5,1.8,0.9,3.7,1.3c4.8,1.1,8.3,2.1,10.4,3.2c2.1,1.1,3.6,2.4,4.6,4c1,1.6,1.4,3.4,1.4,5.4c0,2.3-0.6,4.5-1.9,6.4
		c-1.3,2-3,3.4-5.3,4.5c-2.3,1-5.2,1.5-8.6,1.5c-6.1,0-10.3-1.2-12.6-3.5C249.8,51.5,248.5,48.5,248.1,44.8z"/>
	<path fill="#231F20" d="M283.4,44.8l10.5-0.7c0.2,1.7,0.7,3.1,1.4,4c1.1,1.5,2.8,2.2,4.9,2.2c1.6,0,2.8-0.4,3.7-1.1
		c0.9-0.7,1.3-1.6,1.3-2.6c0-0.9-0.4-1.8-1.2-2.5c-0.8-0.7-2.7-1.4-5.7-2.1c-4.8-1.1-8.3-2.6-10.4-4.4c-2.1-1.8-3.1-4.2-3.1-7
		c0-1.9,0.5-3.6,1.6-5.3c1.1-1.7,2.7-3,4.8-3.9c2.1-0.9,5.1-1.4,8.8-1.4c4.6,0,8.1,0.9,10.5,2.6c2.4,1.7,3.8,4.5,4.3,8.2l-10.4,0.6
		c-0.3-1.6-0.9-2.8-1.7-3.5c-0.9-0.7-2.1-1.1-3.7-1.1c-1.3,0-2.3,0.3-2.9,0.8c-0.6,0.6-1,1.2-1,2c0,0.6,0.3,1.1,0.8,1.6
		c0.5,0.5,1.8,0.9,3.7,1.3c4.8,1.1,8.3,2.1,10.4,3.2c2.1,1.1,3.6,2.4,4.6,4c1,1.6,1.4,3.4,1.4,5.4c0,2.3-0.6,4.5-1.9,6.4
		c-1.3,2-3,3.4-5.3,4.5c-2.3,1-5.1,1.5-8.6,1.5c-6.1,0-10.3-1.2-12.6-3.5C285,51.5,283.7,48.5,283.4,44.8z"/>
	<path fill="#EB0029" d="M47.1,92.6L57.5,92c0.2,1.7,0.7,3.1,1.4,4c1.1,1.5,2.8,2.2,4.9,2.2c1.6,0,2.8-0.4,3.7-1.1
		c0.9-0.7,1.3-1.6,1.3-2.6c0-0.9-0.4-1.8-1.2-2.5c-0.8-0.7-2.7-1.4-5.7-2.1c-4.8-1.1-8.3-2.6-10.4-4.4c-2.1-1.8-3.1-4.2-3.1-7
		c0-1.9,0.5-3.6,1.6-5.3c1.1-1.7,2.7-3,4.8-3.9c2.1-0.9,5.1-1.4,8.8-1.4c4.6,0,8.1,0.9,10.5,2.6c2.4,1.7,3.8,4.5,4.3,8.2l-10.4,0.6
		c-0.3-1.6-0.9-2.8-1.7-3.5c-0.9-0.7-2.1-1.1-3.7-1.1c-1.3,0-2.3,0.3-2.9,0.8c-0.7,0.6-1,1.2-1,2c0,0.6,0.3,1.1,0.8,1.6
		c0.5,0.5,1.8,0.9,3.7,1.3c4.8,1.1,8.3,2.1,10.4,3.2c2.1,1.1,3.6,2.4,4.6,4c1,1.6,1.4,3.4,1.4,5.4c0,2.3-0.6,4.5-1.9,6.4
		c-1.3,2-3,3.4-5.3,4.5c-2.3,1-5.1,1.5-8.6,1.5c-6.1,0-10.3-1.2-12.6-3.6C48.7,99.3,47.4,96.3,47.1,92.6z"/>
	<path fill="#EB0029" d="M82.2,68.3h33.6v9h-11.3v27.3h-11V77.3H82.2V68.3z"/>
	<path fill="#EB0029" d="M138.1,98.6h-12.5l-1.7,6h-11.3l13.4-36.3H138l13.4,36.3h-11.6L138.1,98.6z M135.8,90.8l-4-13l-3.9,13
		H135.8z"/>
	<path fill="#EB0029" d="M155.5,68.3h14.6l5.5,22.1l5.6-22.1h14.5v36.3h-9.1V77l-7,27.7h-8.2L164.5,77v27.7h-9V68.3z"/>
	<path fill="#EB0029" d="M225.8,89.8l9.7,3c-0.7,2.8-1.7,5.1-3.1,6.9c-1.4,1.8-3.1,3.2-5.2,4.2c-2.1,0.9-4.7,1.4-7.9,1.4
		c-3.9,0-7.1-0.6-9.5-1.7c-2.5-1.1-4.6-3.2-6.4-6c-1.8-2.9-2.7-6.6-2.7-11.1c0-6,1.6-10.6,4.7-13.8c3.1-3.2,7.6-4.8,13.4-4.8
		c4.5,0,8.1,0.9,10.6,2.8c2.6,1.8,4.5,4.7,5.8,8.5l-9.8,2.2c-0.3-1.1-0.7-1.9-1.1-2.4c-0.6-0.9-1.4-1.5-2.3-2
		c-0.9-0.5-1.9-0.7-3-0.7c-2.5,0-4.4,1-5.8,3.1c-1,1.5-1.5,3.9-1.5,7.1c0,4,0.6,6.8,1.8,8.3c1.2,1.5,2.9,2.2,5.1,2.2
		c2.1,0,3.7-0.6,4.8-1.8C224.6,93.8,225.3,92.1,225.8,89.8z"/>
	<path fill="#EB0029" d="M238.8,86.5c0-5.9,1.6-10.5,4.9-13.8c3.2-3.3,7.8-4.9,13.6-4.9c5.9,0,10.5,1.6,13.7,4.9
		c3.2,3.2,4.8,7.8,4.8,13.6c0,4.2-0.7,7.7-2.1,10.4c-1.4,2.7-3.4,4.8-6.1,6.3c-2.7,1.5-6,2.3-9.9,2.3c-4,0-7.4-0.7-10-2
		c-2.6-1.3-4.8-3.4-6.4-6.2C239.7,94.3,238.8,90.8,238.8,86.5z M249.9,86.6c0,3.7,0.7,6.3,2,7.9c1.3,1.6,3.2,2.4,5.5,2.4
		c2.4,0,4.2-0.8,5.5-2.4c1.3-1.6,1.9-4.4,1.9-8.4c0-3.4-0.7-5.9-2-7.5c-1.4-1.6-3.2-2.4-5.5-2.4c-2.2,0-4,0.8-5.4,2.4
		C250.5,80.2,249.9,82.9,249.9,86.6z"/>
	<rect x="155.7" y="39" fill="#231F20" width="14.4" height="7.8"/>
	<rect x="0" y="0" fill="#7A701F" width="317.8" height="14.2"/>
	<rect x="0" y="110.1" fill="#FFA400" width="317.8" height="14.2"/>
	<rect x="0.1" y="60.9" fill="#231F20" width="317.7" height="3.4"/>
	<path fill="#231F20" d="M325,0.7c3.5,0,6.3,2.9,6.3,6.4c0,3.6-2.8,6.4-6.3,6.4c-3.5,0-6.4-2.8-6.4-6.4C318.6,3.5,321.4,0.7,325,0.7
		L325,0.7z M324.9,1.7c-2.8,0-5.1,2.4-5.1,5.4c0,3.1,2.3,5.4,5.2,5.4c2.9,0,5.1-2.4,5.1-5.4C330.1,4.1,327.8,1.7,324.9,1.7
		L324.9,1.7z M323.7,10.8h-1.1V3.6c0.6-0.1,1.2-0.2,2-0.2c1.1,0,1.8,0.2,2.2,0.5c0.4,0.3,0.7,0.8,0.7,1.5c0,0.9-0.6,1.5-1.4,1.7v0.1
		c0.6,0.1,1.1,0.7,1.2,1.7c0.2,1.1,0.3,1.5,0.5,1.8h-1.2c-0.2-0.2-0.3-0.9-0.5-1.8c-0.2-0.9-0.6-1.3-1.5-1.3h-0.8V10.8z M323.7,6.8
		h0.8c0.9,0,1.7-0.3,1.7-1.2c0-0.6-0.5-1.3-1.7-1.3c-0.4,0-0.6,0-0.8,0.1V6.8z"/>
</svg>
