<?xml version="1.0" encoding="utf-8"?>
<!-- Generator: Adobe Illustrator 17.1.0, SVG Export Plug-In . SVG Version: 6.00 Build 0)  -->
<!DOCTYPE svg PUBLIC "-//W3C//DTD SVG 1.1//EN" "http://www.w3.org/Graphics/SVG/1.1/DTD/svg11.dtd">
<svg version="1.1" id="Layer_1" xmlns="http://www.w3.org/2000/svg" xmlns:xlink="http://www.w3.org/1999/xlink" x="0px" y="0px"
	 width="335.6px" height="219.3px" viewBox="0 0 335.6 219.3" enable-background="new 0 0 335.6 219.3" xml:space="preserve">
<g>
	<g>
		<path d="M45.2,171.1c1.1,2.4,2.1,4.3,3.1,5.5c0.9,1.2,2.3,1.8,4.2,1.8v1.5H33.1v-1.5c2,0,3.3-0.3,4.1-0.6c0.8-0.4,1.2-1,1.2-1.9
			c0-0.9-0.6-2.9-1.9-5.8l-2.7-6.5H13.9c-0.2,0.6-0.7,1.8-1.5,3.9c-0.8,2-1.5,3.6-1.9,4.8c-0.4,1.2-0.6,2.2-0.6,3.1
			c0,2.1,1.7,3.1,5.2,3.1v1.5H0v-1.5c2.1-0.2,3.8-1.2,4.9-3.1c1.2-1.9,2.8-5.2,4.8-10L25.2,129h1.5L45.2,171.1z M15.3,160.5h17.4
			l-8.8-20.6L15.3,160.5z"/>
		<path d="M60.4,157.4c0-2.8-0.2-4.7-0.6-5.7c-0.4-1-1.2-1.6-2.4-1.6c-0.8,0-1.7,0.1-2.6,0.4v-1.1l12.1-4v6.7c1-1.7,2.3-3.3,3.9-4.7
			c1.5-1.4,3.1-2.1,4.8-2.1c2.8,0,4.2,1.6,4.2,4.9c-0.2,1.6-1.3,2.4-3.1,2.4c-0.6,0-1.1-0.1-1.4-0.3c-0.4-0.2-0.8-0.5-1.3-1
			c-0.5-0.5-0.9-0.8-1.2-1c-0.3-0.2-0.7-0.3-1.1-0.3c-0.7,0-1.7,0.7-2.9,2.1c-1.2,1.4-1.8,2.7-1.8,3.7v17.9c0,1.7,0.4,2.9,1.2,3.7
			c0.8,0.7,2.3,1.2,4.6,1.3v1H54.8v-1c2.2-0.2,3.7-0.6,4.5-1.3c0.8-0.7,1.2-1.9,1.2-3.7V157.4z"/>
		<path d="M86.9,155.5c0-2.4-0.3-3.9-0.8-4.5c-0.5-0.6-1.9-0.9-4-0.9v-1l11.2-3.5v6c3.6-4,7.5-6,11.6-6c5.9,0,8.8,4,8.8,12.1v16.3
			c0,1.7,0.3,2.9,1,3.6c0.7,0.8,1.9,1.2,3.7,1.4v1h-16v-1c1.8-0.2,3.1-0.6,3.8-1.4c0.7-0.8,1-2,1-3.6v-16.2c0-2.6-0.4-4.7-1.1-6.1
			c-0.7-1.4-2.3-2.1-4.7-2.1c-2.8,0-5.5,1.4-8.3,4.3v20.1c0,1.7,0.4,2.9,1,3.6c0.7,0.8,1.9,1.2,3.7,1.4v1H82v-1
			c1.8-0.2,3.1-0.6,3.8-1.4c0.7-0.8,1-2,1-3.6V155.5z"/>
		<path d="M123.8,159.1c0.1,4.2,1.1,7.9,3.2,11.3c2.1,3.4,5.1,5.1,9.1,5.1c2.4,0,4.5-0.8,6.5-2.3c2-1.5,3.7-3.4,5-5.7l1.3,0.4
			c-1.3,3.6-3.3,6.6-6.2,9c-2.8,2.4-6.1,3.6-9.7,3.6c-4.2,0-7.6-1.7-10.3-5c-2.7-3.3-4-7.3-4-11.9c0-3.6,0.6-6.7,1.9-9.5
			c1.3-2.8,3-4.9,5.4-6.5c2.3-1.6,5-2.3,8.1-2.3c4,0,7.2,1.3,9.6,3.8c2.4,2.5,3.6,5.8,3.7,9.9H123.8z M139.6,156.7
			c-0.1-2.5-0.8-4.5-2-6.2c-1.2-1.7-2.9-2.5-5.2-2.5c-4.8,0-7.5,2.9-8.4,8.7H139.6z"/>
		<path d="M158.9,168.9c0,5.2,1.1,7.7,3.3,7.7c0.7,0,1.5-0.2,2.2-0.4c0.9-0.3,1.8-1.1,2.9-2.3l0.9,0.8c-3,3.9-6.3,5.9-9.8,5.9
			c-2.4,0-4-0.8-4.8-2.3c-0.8-1.5-1.2-4.3-1.2-8.2v-21.6h-2.3c-0.9,0-1.4,0-1.6-0.1c-0.2-0.1-0.3-0.4-0.3-0.9c1.4-1,2.6-2,3.7-3.1
			c1.1-1.1,2.4-2.6,4-4.5c1.6-1.9,2.6-3.1,3-3.6v9.9h7.5v2.4h-7.5V168.9z"/>
		<path d="M180,168.9c0,5.2,1.1,7.7,3.3,7.7c0.7,0,1.5-0.2,2.2-0.4c0.9-0.3,1.8-1.1,2.9-2.3l0.9,0.8c-3,3.9-6.3,5.9-9.8,5.9
			c-2.4,0-4-0.8-4.8-2.3c-0.8-1.5-1.2-4.3-1.2-8.2v-21.6h-2.3c-0.9,0-1.4,0-1.6-0.1c-0.2-0.1-0.3-0.4-0.3-0.9c1.4-1,2.6-2,3.7-3.1
			c1.1-1.1,2.4-2.6,4-4.5c1.6-1.9,2.6-3.1,3-3.6v9.9h7.5v2.4H180V168.9z"/>
		<path d="M212.6,179.9v-1.5c4.4,0,6.6-1.5,6.6-4.6v-37.7c0-3-2.2-4.6-6.6-4.6v-1.5h21v1.5c-4.4,0-6.6,1.5-6.6,4.6v37.7
			c0,2,2.5,2.9,7.6,2.9c4.2,0,7.5-0.2,9.8-0.5c2.3-0.4,4.4-1.3,6.2-2.7c1.8-1.4,3.3-3.7,4.6-6.8h2l-3.7,13.1H212.6z"/>
		<path d="M283.7,174c0,1.6,0.5,2.4,1.6,2.4c1,0,2.4-0.6,4-1.8v2c-0.7,0.9-1.7,1.8-3,2.7c-1.2,0.9-2.3,1.3-3.2,1.3
			c-3.5,0-5.4-1.9-5.5-5.8c-4.2,3.9-7.9,5.8-11,5.8c-2.2,0-4.1-0.8-5.7-2.3c-1.6-1.6-2.4-3.4-2.4-5.6c0-2.1,0.6-3.9,1.9-5.5
			c1.3-1.6,2.8-2.9,4.7-4c1.9-1.1,3.9-2,6.1-2.8c2.1-0.8,4.2-1.6,6.1-2.3c0-4.2-0.4-7-1.1-8.5c-0.7-1.5-2.2-2.3-4.5-2.3
			c-0.9,0-1.9,0.2-2.9,0.5c-1,0.4-1.7,0.9-2,1.5c-0.2,0.2-0.2,0.7-0.2,1.4c0,0.3,0,0.8,0.1,1.5c0,0.7,0.1,1.2,0.1,1.6
			c0,0.8-0.3,1.6-1,2.3c-0.7,0.7-1.5,1-2.3,1c-2.2,0-3.3-1-3.3-3.1c0-1,0.3-2,0.8-2.8c2-3.7,6-5.6,12-5.6c4.1,0,7,1,8.5,2.8
			c1.6,1.9,2.4,5.2,2.4,9.9V174z M277.3,160c-1.6,0.6-3.1,1.1-4.4,1.6c-1.3,0.5-2.5,1.1-3.7,1.7c-1.2,0.7-2.1,1.5-2.9,2.6
			c-0.7,1.1-1.1,2.4-1.1,4.1c0,1.8,0.5,3.2,1.4,4.4c0.9,1.2,2.3,1.7,4,1.7c0.8,0,2-0.4,3.7-1.1c1.6-0.7,2.6-1.5,3-2.2V160z"/>
		<path d="M320.6,180.1c-0.2,0.4-0.4,0.6-0.6,0.6c-0.2,0-0.5-0.2-0.7-0.6l-8.1-20.3l-9.8,20.3c-0.2,0.4-0.4,0.6-0.7,0.6
			c-0.2,0-0.4-0.2-0.6-0.6l-10.5-26c-0.8-2-1.3-3.2-1.5-3.7c-0.2-0.5-0.5-1-0.8-1.6c-0.3-0.5-0.7-0.9-1.1-1.2
			c-0.4-0.2-1-0.4-1.7-0.4v-1.1h13.7v1.1c-1.2,0-2.1,0.1-2.7,0.5c-0.6,0.3-0.9,1-0.9,2c0,0.8,0.5,2.5,1.5,5.2c1,2.7,1.9,4.9,2.7,6.6
			l3.8,9.6l6.8-14.6c-1-3.6-2-6-2.8-7.3c-0.8-1.3-2.1-1.9-3.9-1.9v-1.1h15.4v1.1c-3,0-4.5,0.7-4.5,2.3c0,1,0.4,2.5,1.3,4.6l6.4,16.5
			l6.2-15c1.3-3.1,2-5.2,2-6.2c0-1.4-1.1-2.1-3.3-2.1v-1.1h9.3v1.1c-0.6,0.2-1.1,0.6-1.6,1.1c-0.4,0.6-0.8,1.1-1,1.6
			c-0.2,0.5-0.5,1.2-0.9,2.1L320.6,180.1z"/>
	</g>
	<g>
		<path d="M81.5,213v-0.6c1.7,0,2.5-0.6,2.5-1.8V196c0-1.2-0.9-1.8-2.5-1.8v-0.6h8v0.6c-1.7,0-2.5,0.6-2.5,1.8v14.6
			c0,0.8,1,1.1,2.9,1.1c1.6,0,2.9-0.1,3.7-0.2c0.9-0.1,1.7-0.5,2.4-1c0.7-0.6,1.3-1.4,1.8-2.6h0.8l-1.4,5.1H81.5z"/>
		<path d="M101.5,204.9c0,1.6,0.4,3.1,1.2,4.4c0.8,1.3,2,2,3.5,2c0.9,0,1.7-0.3,2.5-0.9c0.8-0.6,1.4-1.3,1.9-2.2l0.5,0.2
			c-0.5,1.4-1.3,2.6-2.4,3.5c-1.1,0.9-2.3,1.4-3.7,1.4c-1.6,0-2.9-0.6-4-1.9c-1-1.3-1.5-2.8-1.5-4.6c0-1.4,0.2-2.6,0.7-3.7
			c0.5-1.1,1.2-1.9,2.1-2.5c0.9-0.6,1.9-0.9,3.1-0.9c1.5,0,2.8,0.5,3.7,1.5c0.9,1,1.4,2.3,1.4,3.8H101.5z M107.6,204
			c0-1-0.3-1.8-0.8-2.4c-0.5-0.6-1.1-1-2-1c-1.8,0-2.9,1.1-3.2,3.4H107.6z"/>
		<path d="M125.4,201.7H123c0.4,0.8,0.6,1.6,0.6,2.5c0,0.9-0.2,1.7-0.6,2.3c-0.4,0.7-1,1.2-1.7,1.6c-0.7,0.3-1.5,0.5-2.3,0.5
			c-0.2,0-0.5,0-0.8-0.1c-0.3,0-0.6-0.1-0.8-0.1c-0.3,0.1-0.7,0.3-1.1,0.8c-0.4,0.4-0.6,0.9-0.6,1.2c0.3,0.4,1.1,0.6,2.6,0.6
			c2.1,0.1,3.4,0.2,4.1,0.2c0.7,0.1,1.3,0.3,1.9,0.8c0.6,0.4,0.9,1.2,0.9,2.2c0,1-0.4,1.9-1.2,2.7c-0.8,0.7-1.8,1.3-3,1.7
			c-1.2,0.4-2.3,0.6-3.3,0.6c-1.6,0-2.8-0.3-3.7-1c-0.9-0.7-1.3-1.3-1.3-2c0-0.3,0.1-0.7,0.4-1c0.2-0.3,0.6-0.7,0.9-1
			c0.4-0.3,0.9-0.8,1.5-1.3c-1-0.5-1.5-1-1.5-1.5c0-0.9,0.9-1.9,2.6-3.2c-1.8-0.8-2.7-2.1-2.7-3.9c0-1.4,0.5-2.6,1.5-3.4
			c1-0.9,2.2-1.3,3.6-1.3c0.7,0,1.5,0.2,2.5,0.5c0.9,0.3,1.8,0.5,2.7,0.5c0.6,0,1.1,0,1.4-0.1V201.7z M119.2,207.9
			c1.4,0,2.2-1,2.2-2.9c0-1-0.3-2-0.8-3.1c-0.5-1-1.2-1.5-2.1-1.5c-1.5,0-2.3,0.9-2.3,2.8c0,1.2,0.2,2.3,0.7,3.2
			C117.4,207.4,118.1,207.9,119.2,207.9z M114.6,215.6c0,0.6,0.3,1.1,1,1.5c0.7,0.4,1.7,0.6,3.1,0.6c1.7,0,3.1-0.3,4.1-0.8
			c1-0.5,1.5-1.2,1.5-2c0-0.6-0.3-1.1-1-1.2c-0.7-0.2-1.6-0.3-2.9-0.3c-1.9,0-3.4-0.1-4.4-0.3C115.1,214.1,114.6,215,114.6,215.6z"
			/>
		<path d="M137,210.7c0,0.6,0.2,0.9,0.6,0.9c0.4,0,0.9-0.2,1.5-0.7v0.8c-0.3,0.3-0.7,0.7-1.1,1c-0.5,0.3-0.9,0.5-1.2,0.5
			c-1.4,0-2.1-0.7-2.1-2.2c-1.6,1.5-3,2.2-4.2,2.2c-0.8,0-1.6-0.3-2.2-0.9c-0.6-0.6-0.9-1.3-0.9-2.2c0-0.8,0.2-1.5,0.7-2.1
			c0.5-0.6,1.1-1.1,1.8-1.6c0.7-0.4,1.5-0.8,2.3-1.1c0.8-0.3,1.6-0.6,2.3-0.9c0-1.6-0.1-2.7-0.4-3.3c-0.3-0.6-0.8-0.9-1.7-0.9
			c-0.4,0-0.7,0.1-1.1,0.2c-0.4,0.1-0.6,0.3-0.8,0.6c-0.1,0.1-0.1,0.3-0.1,0.5c0,0.1,0,0.3,0,0.6c0,0.3,0,0.5,0,0.6
			c0,0.3-0.1,0.6-0.4,0.9c-0.3,0.3-0.6,0.4-0.9,0.4c-0.8,0-1.3-0.4-1.3-1.2c0-0.4,0.1-0.8,0.3-1.1c0.8-1.4,2.3-2.2,4.6-2.2
			c1.6,0,2.7,0.4,3.3,1.1c0.6,0.7,0.9,2,0.9,3.8V210.7z M134.5,205.3c-0.6,0.2-1.2,0.4-1.7,0.6c-0.5,0.2-1,0.4-1.4,0.7
			c-0.4,0.3-0.8,0.6-1.1,1c-0.3,0.4-0.4,1-0.4,1.6c0,0.7,0.2,1.3,0.5,1.7c0.4,0.4,0.9,0.7,1.5,0.7c0.3,0,0.8-0.2,1.4-0.4
			c0.6-0.3,1-0.6,1.2-0.9V205.3z"/>
		<path d="M142,196.6c0-0.8-0.1-1.4-0.2-1.6c-0.1-0.2-0.5-0.3-1-0.3h-1v-0.4c1.5-0.3,3.1-0.7,4.7-1.3v17.5c0,0.7,0.1,1.1,0.4,1.4
			c0.3,0.3,0.9,0.5,1.8,0.5v0.4h-6.9v-0.4c0.9-0.1,1.5-0.2,1.8-0.5c0.3-0.3,0.5-0.8,0.5-1.4V196.6z"/>
		<path d="M158.1,207.1h0.6c0.5,1.5,1.2,2.7,2.3,3.7c1,1,2.3,1.5,3.7,1.5c1,0,1.8-0.3,2.4-0.9c0.6-0.6,1-1.4,1-2.3
			c0-0.4,0-0.7-0.1-1.1c-0.3-0.9-0.7-1.6-1.4-2.1c-0.7-0.5-1.8-1.2-3.3-2.1c-1.5-0.9-2.6-1.7-3.3-2.5c-0.7-0.8-1.1-1.9-1.1-3.1
			c0-1.4,0.5-2.6,1.5-3.5c1-0.9,2.2-1.4,3.7-1.4c0.8,0,1.7,0.2,2.6,0.5c0.9,0.3,1.4,0.5,1.6,0.5c0.4,0,0.8-0.3,1-1h0.6l0.7,6.2h-0.8
			c-0.2-0.9-0.6-1.7-1.1-2.5c-0.5-0.8-1.1-1.4-1.8-1.8c-0.7-0.5-1.5-0.7-2.4-0.7c-0.9,0-1.7,0.2-2.2,0.7c-0.6,0.5-0.8,1.2-0.8,2.1
			c0,1.2,1,2.5,3.1,3.7c1.9,1.2,3.2,2,4,2.5c0.7,0.5,1.3,1.1,1.9,1.9c0.5,0.8,0.8,1.7,0.8,2.8c0,1.4-0.6,2.7-1.7,3.7
			c-1.1,1.1-2.6,1.6-4.5,1.6c-0.6,0-1.1-0.1-1.6-0.2c-0.5-0.1-1-0.3-1.6-0.5c-0.6-0.2-1-0.3-1.3-0.3c-0.5,0-0.8,0.3-0.9,0.9H159
			L158.1,207.1z"/>
		<path d="M175.7,204.9c0,1.6,0.4,3.1,1.2,4.4c0.8,1.3,2,2,3.5,2c0.9,0,1.7-0.3,2.5-0.9c0.8-0.6,1.4-1.3,1.9-2.2l0.5,0.2
			c-0.5,1.4-1.3,2.6-2.4,3.5c-1.1,0.9-2.3,1.4-3.7,1.4c-1.6,0-2.9-0.6-4-1.9c-1-1.3-1.5-2.8-1.5-4.6c0-1.4,0.2-2.6,0.7-3.7
			c0.5-1.1,1.2-1.9,2.1-2.5c0.9-0.6,1.9-0.9,3.1-0.9c1.5,0,2.8,0.5,3.7,1.5c0.9,1,1.4,2.3,1.4,3.8H175.7z M181.8,204
			c0-1-0.3-1.8-0.8-2.4c-0.4-0.6-1.1-1-2-1c-1.8,0-2.9,1.1-3.2,3.4H181.8z"/>
		<path d="M188.2,204.3c0-1.1-0.1-1.8-0.2-2.2c-0.2-0.4-0.5-0.6-0.9-0.6c-0.3,0-0.7,0.1-1,0.2v-0.4l4.6-1.6v2.6
			c0.4-0.7,0.9-1.3,1.5-1.8c0.6-0.5,1.2-0.8,1.8-0.8c1.1,0,1.6,0.6,1.6,1.9c-0.1,0.6-0.5,0.9-1.2,0.9c-0.2,0-0.4,0-0.5-0.1
			c-0.1-0.1-0.3-0.2-0.5-0.4c-0.2-0.2-0.4-0.3-0.5-0.4c-0.1-0.1-0.3-0.1-0.4-0.1c-0.3,0-0.7,0.3-1.1,0.8c-0.5,0.6-0.7,1-0.7,1.4v6.9
			c0,0.7,0.2,1.1,0.5,1.4c0.3,0.3,0.9,0.5,1.7,0.5v0.4h-6.8v-0.4c0.8-0.1,1.4-0.2,1.7-0.5c0.3-0.3,0.5-0.8,0.5-1.4V204.3z"/>
		<path d="M203.3,212.5c-0.2,0.5-0.4,0.8-0.5,0.8c-0.1,0-0.3-0.3-0.5-0.8l-4.5-10.6c-0.5-1.1-1.1-1.6-1.9-1.6v-0.4h5.7v0.4
			c-0.9,0-1.3,0.3-1.3,0.8c0,0.2,0.1,0.6,0.4,1.4l2.8,6.9l2.2-5.9c0.4-1.2,0.7-2,0.7-2.4c0-0.6-0.4-0.8-1.2-0.8v-0.4h4v0.4
			c-0.3,0-0.5,0.1-0.7,0.2c-0.2,0.1-0.4,0.3-0.5,0.6c-0.1,0.2-0.3,0.5-0.4,0.8c-0.1,0.3-0.3,0.7-0.5,1.1L203.3,212.5z"/>
		<path d="M212.5,194.6c0-0.4,0.1-0.8,0.4-1.1c0.3-0.3,0.6-0.4,1.1-0.4c0.4,0,0.7,0.1,1,0.4c0.3,0.3,0.4,0.6,0.4,1.1
			c0,0.4-0.1,0.8-0.4,1c-0.3,0.3-0.6,0.4-1,0.4c-0.4,0-0.8-0.2-1.1-0.4C212.6,195.3,212.5,195,212.5,194.6z M213,203.6
			c0-0.8-0.1-1.4-0.2-1.7c-0.1-0.3-0.4-0.5-0.8-0.5c-0.2,0-0.6,0.1-1.2,0.2v-0.4l4.7-1.6v11c0,0.7,0.2,1.1,0.5,1.4
			c0.3,0.3,0.9,0.5,1.7,0.5v0.4h-6.9v-0.4c0.9-0.1,1.4-0.2,1.7-0.5c0.3-0.3,0.5-0.8,0.5-1.4V203.6z"/>
		<path d="M230.1,208.6c-0.7,1.4-1.5,2.6-2.4,3.4c-0.9,0.8-2,1.2-3.4,1.2c-1,0-1.9-0.3-2.8-0.9c-0.8-0.6-1.5-1.4-2-2.4
			c-0.5-1-0.7-2.1-0.7-3.3c0-2,0.6-3.7,1.7-5.1c1.1-1.4,2.7-2,4.8-2c0.6,0,1.2,0.1,1.9,0.3c0.7,0.2,1.2,0.5,1.7,1
			c0.5,0.4,0.7,0.9,0.8,1.5c0,0.4-0.1,0.7-0.4,0.9c-0.3,0.3-0.6,0.4-0.9,0.4c-0.3,0-0.6-0.1-0.9-0.4c-0.3-0.3-0.4-0.6-0.4-0.9
			c0-0.6-0.2-1.1-0.6-1.4c-0.4-0.4-0.9-0.5-1.7-0.5c-1.2,0-2.1,0.5-2.8,1.5c-0.7,1-1,2.2-1,3.5c0,1.5,0.4,2.8,1.2,3.9
			c0.8,1.1,1.9,1.7,3.3,1.7c1.5,0,2.9-0.9,4.1-2.8L230.1,208.6z"/>
		<path d="M233.7,204.9c0,1.6,0.4,3.1,1.2,4.4c0.8,1.3,2,2,3.5,2c0.9,0,1.7-0.3,2.5-0.9c0.8-0.6,1.4-1.3,1.9-2.2l0.5,0.2
			c-0.5,1.4-1.3,2.6-2.4,3.5c-1.1,0.9-2.3,1.4-3.7,1.4c-1.6,0-2.9-0.6-4-1.9c-1-1.3-1.5-2.8-1.5-4.6c0-1.4,0.2-2.6,0.7-3.7
			c0.5-1.1,1.2-1.9,2.1-2.5c0.9-0.6,1.9-0.9,3.1-0.9c1.5,0,2.8,0.5,3.7,1.5c0.9,1,1.4,2.3,1.4,3.8H233.7z M239.8,204
			c0-1-0.3-1.8-0.8-2.4c-0.5-0.6-1.1-1-2-1c-1.8,0-2.9,1.1-3.2,3.4H239.8z"/>
		<path d="M245.4,208.5h0.5c0.4,2.7,1.7,4,3.8,4c0.7,0,1.2-0.2,1.6-0.5c0.4-0.4,0.7-0.9,0.7-1.5c0-0.7-0.3-1.2-0.8-1.6
			c-0.5-0.4-1.3-0.9-2.4-1.6c-1.1-0.6-1.9-1.2-2.5-1.8c-0.6-0.6-0.9-1.4-0.9-2.3c0-0.7,0.2-1.4,0.6-1.9c0.4-0.5,0.9-1,1.5-1.2
			c0.6-0.3,1.3-0.4,2-0.4c0.5,0,1.2,0.2,2.1,0.5c0.2,0.1,0.4,0.1,0.6,0.1c0.2,0,0.4-0.1,0.5-0.3h0.4v3.9h-0.5
			c-0.3-1.1-0.7-2-1.1-2.6c-0.5-0.6-1.1-0.9-2-0.9c-0.6,0-1.1,0.2-1.5,0.5c-0.4,0.4-0.7,0.8-0.7,1.4c0,0.6,0.3,1.2,0.8,1.6
			c0.5,0.4,1.4,1,2.5,1.6c1.2,0.7,2,1.3,2.6,1.8c0.6,0.6,0.9,1.3,0.9,2.1c0,1.2-0.4,2.2-1.2,2.9c-0.8,0.7-1.9,1-3.1,1
			c-0.3,0-1-0.1-2.1-0.4c-0.5-0.2-0.9-0.2-1.2-0.2c-0.3,0-0.5,0.1-0.6,0.4h-0.4V208.5z"/>
	</g>
	<g>
		<path fill="#7D0000" d="M182.3,47L182.3,47L167,18.8l-14.6,28.1l0,0c-2.5,0.2-5.1,0.6-7.5,0.9l0,0l18.1-35.4L169.3,0l5.2,9.1
			l22.1,40.1l0,0C191.9,48.2,187.1,47.5,182.3,47z"/>
		<rect x="149.7" y="70" fill-rule="evenodd" clip-rule="evenodd" fill="#7D0000" width="16.3" height="16.3"/>
		<rect x="169.3" y="70" fill-rule="evenodd" clip-rule="evenodd" fill="#7D0000" width="16.3" height="16.3"/>
		<rect x="149.7" y="89.5" fill-rule="evenodd" clip-rule="evenodd" fill="#7D0000" width="16.3" height="16.3"/>
		<rect x="169.3" y="89.5" fill-rule="evenodd" clip-rule="evenodd" fill="#7D0000" width="16.3" height="16.3"/>
		<path fill-rule="evenodd" clip-rule="evenodd" d="M97.4,116.3v-3.7c5.8,0,10.1-0.9,12.8-2.6c2.8-1.9,5.9-6,9.2-12.4L139,59.3
			c-18.3,2.5-35.3,7.4-50.1,14.2c20.3-15.1,47.7-24.3,77.9-24.3c30.1,0,57.5,9.2,77.9,24.3C232,67.7,218,63.3,202.9,60.6l22.9,41.6
			c1.8,3.9,4.3,6.6,7.7,8.1c3,1.5,7.4,2.3,13.2,2.3v3.7h-52.9v-3.7c9,0,14.7-0.6,17.3-1.8c3-1.4,3.5-4.1,1.4-8l-24-44.2
			c-7.1-0.8-14.4-1.1-21.9-1.1c-6.9,0-13.7,0.3-20.3,1l-21.3,41c-2.6,5.3-2.6,8.8,0,10.6c2.4,1.7,8.3,2.6,17.7,2.6v3.7H97.4z"/>
		<path fill-rule="evenodd" clip-rule="evenodd" fill="#7D0000" d="M74.7,79.2h30.7c-2.5,5.9-8.4,10.1-15.3,10.1
			C83.2,89.3,77.2,85.2,74.7,79.2z"/>
		<path fill-rule="evenodd" clip-rule="evenodd" fill="#7D0000" d="M230.2,79.2h30.7c-2.5,5.9-8.4,10.1-15.3,10.1
			C238.6,89.3,232.7,85.2,230.2,79.2z"/>
	</g>
</g>
</svg>
